<svg version="1.1" id="Layer_1" xmlns="http://www.w3.org/2000/svg" xmlns:xlink="http://www.w3.org/1999/xlink" x="0px" y="0px"
	 width="100%" viewBox="0 0 50 50" enable-background="new 0 0 50 50" xml:space="preserve">
<path fill="#6F6F6B" opacity="1.000000" stroke="none" 
	d="
M1.000000,22.000000 
	C1.000000,20.611002 1.000000,19.222006 1.388769,17.379238 
	C4.840586,16.959589 7.903633,16.993710 10.981924,17.453152 
	C10.996666,19.585934 10.996163,21.293398 10.618124,23.000519 
	C9.484335,23.003532 8.728084,23.006886 7.568544,23.011852 
	C6.359024,23.076202 5.552793,23.138939 4.450998,23.046745 
	C3.103623,22.594542 2.051811,22.297272 1.000000,22.000000 
z"/>
<path fill="#FEF7E9" opacity="1.000000" stroke="none" 
	d="
M51.000000,38.000000 
	C51.000000,40.042316 51.000000,42.084637 50.766304,44.642056 
	C50.532612,45.157158 50.041534,45.201836 49.997444,44.833130 
	C46.700439,40.298988 43.891472,43.324856 40.668205,45.014450 
	C39.893745,45.021740 39.451263,45.031719 38.863297,44.739319 
	C37.161003,42.652782 35.604198,40.868626 34.271584,38.961143 
	C34.733532,38.593071 34.971287,38.348331 35.460342,38.079903 
	C36.155167,37.849155 36.598690,37.642097 37.270508,37.303345 
	C37.667141,37.121300 37.835476,37.070946 38.011158,37.387131 
	C40.978771,43.078194 44.129917,43.170399 49.318680,38.129940 
	C50.105175,38.123650 50.552589,38.061825 51.000000,38.000000 
z"/>
<path fill="#756D67" opacity="1.000000" stroke="none" 
	d="
M51.000000,12.000000 
	C51.000000,12.750000 51.000000,13.500000 50.794960,14.830947 
	C50.337612,15.924109 50.085300,16.436323 49.628922,16.975349 
	C49.424850,17.002161 49.014339,17.032684 48.685242,16.880516 
	C46.288101,16.169531 44.220058,15.610714 42.102570,14.717154 
	C42.011009,13.934325 41.968895,13.486242 42.190067,12.824910 
	C42.056194,11.411532 41.659027,10.211405 41.220226,8.679397 
	C41.181503,7.902296 41.184414,7.457074 41.489574,7.008018 
	C42.194656,7.002858 42.597492,7.001532 43.371948,7.002886 
	C44.485863,7.011915 45.228157,7.018264 45.975372,7.270371 
	C45.980297,7.516130 45.993206,8.007576 46.000298,8.375568 
	C47.001606,9.499656 47.995823,10.255749 49.162148,11.254622 
	C49.889507,11.664934 50.444752,11.832468 51.000000,12.000000 
z"/>
<path fill="#8D8E84" opacity="1.000000" stroke="none" 
	d="
M49.014339,17.032684 
	C49.014339,17.032684 49.424850,17.002161 49.693527,17.401052 
	C50.032867,20.068100 50.103527,22.336258 50.135452,24.947790 
	C50.397808,25.860777 50.698906,26.430389 51.000000,27.000000 
	C51.000000,27.444336 51.000000,27.888672 50.649948,28.664589 
	C49.199665,29.327803 48.099426,29.659435 46.957512,29.645000 
	C45.419044,28.535845 43.922253,27.772758 42.285305,26.757832 
	C42.071083,26.329702 41.997025,26.153414 41.981720,25.608971 
	C42.157284,24.504604 42.274090,23.768391 42.763004,23.023861 
	C46.923573,22.818300 49.461742,21.392418 49.014339,17.032684 
z"/>
<path fill="#6D6D68" opacity="1.000000" stroke="none" 
	d="
M13.000000,1.000000 
	C14.388997,1.000000 15.777995,1.000000 17.575672,1.333937 
	C17.988808,2.113217 17.993267,2.558560 18.025448,3.328382 
	C18.376827,4.454880 18.700480,5.256900 18.848907,6.342055 
	C17.328005,8.131412 15.982323,9.637633 14.480425,11.277048 
	C14.324208,11.410242 13.920749,11.334109 14.018139,10.996355 
	C14.149808,10.429533 14.184087,10.200466 14.278046,9.620202 
	C13.166029,8.017638 11.994330,6.766273 10.872578,5.098300 
	C10.949220,4.125967 10.975916,3.570240 11.321478,2.966553 
	C12.093563,2.279062 12.546782,1.639531 13.000000,1.000000 
z"/>
<path fill="#88807E" opacity="1.000000" stroke="none" 
	d="
M46.999191,29.991070 
	C48.099426,29.659435 49.199665,29.327803 50.649948,28.998085 
	C51.000000,30.388889 51.000000,31.777779 50.697124,33.686996 
	C50.596165,34.804886 50.798080,35.402443 51.000000,36.000000 
	C51.000000,36.444447 51.000000,36.888889 51.000000,37.666664 
	C50.552589,38.061825 50.105175,38.123650 49.198154,37.867943 
	C48.143734,37.132450 47.548920,36.714489 46.925167,36.075130 
	C46.614925,35.870480 46.333622,35.887226 45.707375,35.885910 
	C44.518841,35.593960 43.675259,35.320065 42.405170,34.729172 
	C41.716286,34.173664 41.453907,33.935154 41.282211,33.531319 
	C41.372898,33.365997 41.365868,33.007355 41.365868,33.007355 
	C41.365868,33.007355 41.265118,33.349533 41.681126,33.095589 
	C43.731155,31.891453 45.365173,30.941261 46.999191,29.991070 
z"/>
<path fill="#F2DDC9" opacity="1.000000" stroke="none" 
	d="
M39.008781,45.041698 
	C39.451263,45.031719 39.893745,45.021740 40.867035,45.263493 
	C42.284592,46.053013 43.171337,46.590797 43.952202,47.414833 
	C43.250347,48.497913 42.654373,49.294750 41.714035,50.052616 
	C40.579781,50.342430 39.789890,50.671215 39.000000,51.000000 
	C36.299038,51.000000 33.598076,51.000000 30.475521,50.661011 
	C30.069756,49.869659 30.085585,49.417297 30.477085,48.923584 
	C33.571430,47.602055 36.290108,46.321877 39.008781,45.041698 
z"/>
<path fill="#5D5B57" opacity="1.000000" stroke="none" 
	d="
M10.966681,17.027832 
	C7.903633,16.993710 4.840586,16.959589 1.388769,16.962734 
	C1.000000,16.250000 1.000000,15.500000 1.389297,14.313890 
	C2.825640,13.833361 3.872685,13.788941 5.233645,13.752943 
	C5.703490,13.171020 5.859420,12.580675 6.340970,11.967888 
	C7.460654,11.717230 8.254719,11.489016 9.405820,11.229303 
	C10.478092,11.160038 11.193328,11.122271 11.892525,11.071358 
	C11.876486,11.058213 11.881355,11.102575 11.894775,11.469170 
	C12.428222,12.392700 12.948248,12.949636 13.631297,13.975003 
	C13.538985,14.653532 13.283652,14.863628 13.109164,15.400007 
	C13.059539,16.150887 12.929069,16.575483 12.571407,16.990074 
	C12.344216,16.980068 11.890215,16.952778 11.833128,16.793575 
	C11.542771,16.738026 11.309503,16.841681 11.048678,16.965738 
	C11.021124,16.986141 10.966681,17.027832 10.966681,17.027832 
z"/>
<path fill="#514841" opacity="1.000000" stroke="none" 
	d="
M45.993206,8.007576 
	C45.993206,8.007576 45.980297,7.516130 45.989380,6.927632 
	C45.663624,5.550577 45.328781,4.762020 45.094704,3.726837 
	C45.130314,2.653474 45.065159,1.826737 45.000000,1.000000 
	C46.388889,1.000000 47.777779,1.000000 49.673359,1.233309 
	C50.453365,1.644413 50.726685,1.822207 51.000000,2.000000 
	C51.000000,3.714163 51.000000,5.428326 50.582962,7.581214 
	C48.775021,8.015818 47.384113,8.011697 45.993206,8.007576 
z"/>
<path fill="#12171A" opacity="1.000000" stroke="none" 
	d="
M1.000000,12.000000 
	C1.000000,10.611003 1.000000,9.222005 1.353948,7.329089 
	C2.643893,6.264189 3.579889,5.703207 4.738571,5.251056 
	C4.961256,5.359884 5.452000,5.431279 5.452000,5.431279 
	C5.452000,5.431279 5.941121,5.349585 6.144113,5.411141 
	C6.347105,5.472697 6.772431,5.485047 6.990049,5.711867 
	C7.522501,6.941690 7.837335,7.944694 7.804556,8.964385 
	C6.671191,9.799745 5.885438,10.618417 4.684978,11.506990 
	C3.180181,11.717928 2.090090,11.858964 1.000000,12.000000 
z"/>
<path fill="#BEA289" opacity="1.000000" stroke="none" 
	d="
M42.058403,50.091587 
	C42.654373,49.294750 43.250347,48.497913 44.327621,47.378983 
	C46.553127,46.438538 48.297329,45.820187 50.041534,45.201836 
	C50.041534,45.201836 50.532612,45.157158 50.766304,45.078579 
	C51.000000,46.388889 51.000000,47.777779 50.632328,49.486923 
	C49.176437,50.204788 48.088219,50.602394 47.000000,51.000000 
	C45.611111,51.000000 44.222221,51.000000 42.425598,50.772530 
	C42.017860,50.545063 42.058403,50.091587 42.058403,50.091587 
z"/>
<path fill="#5A5554" opacity="1.000000" stroke="none" 
	d="
M30.000000,1.000000 
	C32.042316,1.000000 34.084637,1.000000 36.563446,1.376499 
	C36.997677,2.506251 36.995422,3.259505 36.748367,4.186403 
	C36.325451,4.924924 36.147331,5.489799 35.834335,6.091413 
	C35.699455,6.128150 35.420643,6.148972 35.150230,6.087020 
	C34.698845,5.994622 34.517876,5.964175 33.996815,5.826020 
	C33.024338,5.390411 32.391953,5.062511 31.683605,4.501693 
	C31.071527,3.840379 30.535408,3.411983 29.996006,2.652995 
	C29.995150,1.881602 29.997576,1.440801 30.000000,1.000000 
z"/>
<path fill="#5B5453" opacity="1.000000" stroke="none" 
	d="
M17.997725,3.003903 
	C17.993267,2.558560 17.988808,2.113217 17.992176,1.333937 
	C18.000000,1.000000 18.500000,1.000000 18.838852,1.162530 
	C19.451803,1.216707 19.725901,1.108354 20.000000,1.000000 
	C22.370558,1.000000 24.741116,1.000000 27.488541,1.215624 
	C27.578951,1.776009 27.292492,2.120769 26.713427,2.549476 
	C25.866640,2.865806 25.312462,3.098188 24.392853,3.360216 
	C22.720335,4.019634 21.413248,4.649408 20.054548,4.933159 
	C19.334532,4.059392 18.666128,3.531647 17.997725,3.003903 
z"/>
<path fill="#E5D9C6" opacity="1.000000" stroke="none" 
	d="
M18.000000,51.000000 
	C16.611002,51.000000 15.222005,51.000000 13.365632,50.725300 
	C12.684944,49.939911 12.471632,49.429218 12.584304,48.850983 
	C13.306952,47.784805 13.703616,46.786167 14.474133,45.843193 
	C15.576177,45.794353 16.304369,45.689854 17.348776,45.752113 
	C18.099665,46.943497 18.534336,47.968128 18.735367,49.171074 
	C18.334484,49.899593 18.167242,50.449795 18.000000,51.000000 
z"/>
<path fill="#F5DDCE" opacity="1.000000" stroke="none" 
	d="
M28.000000,51.000000 
	C26.285625,51.000000 24.571249,51.000000 22.434250,50.685005 
	C22.017025,49.949982 22.022423,49.529953 22.055962,48.908428 
	C22.150541,48.437431 22.119722,48.179688 22.306530,47.763588 
	C23.081221,47.059761 23.541031,46.526043 24.321838,45.945755 
	C25.250284,45.674431 25.857729,45.449677 26.608479,45.608810 
	C27.158709,46.962811 27.565639,47.932922 27.968376,49.253048 
	C27.976124,50.068707 27.988062,50.534351 28.000000,51.000000 
z"/>
<path fill="#5A524C" opacity="1.000000" stroke="none" 
	d="
M36.993168,4.012758 
	C36.995422,3.259505 36.997677,2.506251 36.999969,1.376499 
	C37.000000,1.000000 37.500000,1.000000 37.943069,1.266573 
	C40.256618,2.687257 42.127106,3.841366 43.890381,5.254705 
	C43.522224,6.009359 43.261276,6.504783 43.000324,7.000206 
	C42.597492,7.001532 42.194656,7.002858 41.136478,6.980489 
	C39.652775,6.663727 38.824421,6.370659 37.895576,5.807177 
	C37.527786,5.028761 37.260475,4.520760 36.993168,4.012758 
z"/>
<path fill="#4B423C" opacity="1.000000" stroke="none" 
	d="
M43.997589,4.995477 
	C42.127106,3.841366 40.256618,2.687257 38.193069,1.266573 
	C40.041668,1.000000 42.083332,1.000000 44.562500,1.000000 
	C45.065159,1.826737 45.130314,2.653474 44.883617,3.849649 
	C44.306259,4.423074 44.114868,4.681871 43.997589,4.995477 
z"/>
<path fill="#B7ACA4" opacity="1.000000" stroke="none" 
	d="
M1.000000,44.000000 
	C1.000000,42.285625 1.000000,40.571247 1.288366,38.716331 
	C2.101945,38.676659 2.627158,38.777534 3.186376,39.165367 
	C3.827761,40.347805 4.435142,41.243282 5.031886,42.462048 
	C5.008526,43.217773 4.995801,43.650219 4.651485,44.039993 
	C3.874870,44.008171 3.429846,44.019020 2.654416,44.006737 
	C1.882674,43.989067 1.441337,43.994534 1.000000,44.000000 
z"/>
<path fill="#59606F" opacity="1.000000" stroke="none" 
	d="
M5.941121,5.349585 
	C5.941121,5.349585 5.452000,5.431279 5.452000,5.431279 
	C5.452000,5.431279 4.961256,5.359884 4.377060,5.133912 
	C2.861909,4.605293 1.930954,4.302647 1.000000,4.000000 
	C1.000000,3.555556 1.000000,3.111111 1.218645,2.224493 
	C1.710260,1.582981 1.897831,1.322208 2.000000,1.000000 
	C2.750000,1.000000 3.500000,1.000000 4.648666,1.295398 
	C5.364054,2.059474 5.680776,2.528153 5.992475,3.387478 
	C5.972008,4.301944 5.956564,4.825765 5.941121,5.349585 
z"/>
<path fill="#070604" opacity="1.000000" stroke="none" 
	d="
M3.152371,38.878410 
	C2.627158,38.777534 2.101945,38.676659 1.288366,38.287895 
	C1.000000,36.285641 1.000000,34.571285 1.301228,32.450195 
	C2.075930,32.371025 2.549405,32.698589 3.016950,33.364025 
	C3.659924,34.786419 4.308828,35.870937 4.724874,37.197243 
	C4.045468,37.918823 3.598920,38.398613 3.152371,38.878410 
z"/>
<path fill="#726961" opacity="1.000000" stroke="none" 
	d="
M18.969009,48.992756 
	C18.534336,47.968128 18.099665,46.943497 17.344379,45.489399 
	C17.016380,44.706463 17.008991,44.352993 17.205242,43.745762 
	C18.251324,43.339218 19.093763,43.186440 19.960121,43.430672 
	C20.020655,44.888176 20.057270,45.948669 20.013927,47.347538 
	C20.006889,48.133747 20.079807,48.581577 20.134632,49.358643 
	C20.077694,50.125248 20.038847,50.562622 20.000000,51.000000 
	C20.000000,51.000000 19.500000,51.000000 19.265699,50.664864 
	C19.010603,49.884071 18.989805,49.438416 18.969009,48.992756 
z"/>
<path fill="#655C55" opacity="1.000000" stroke="none" 
	d="
M46.000298,8.375568 
	C47.384113,8.011697 48.775021,8.015818 50.582962,8.009970 
	C51.000000,8.444445 51.000000,8.888889 50.701916,9.687795 
	C49.932568,10.365450 49.461304,10.688645 48.990040,11.011841 
	C47.995823,10.255749 47.001606,9.499656 46.000298,8.375568 
z"/>
<path fill="#BEAA9C" opacity="1.000000" stroke="none" 
	d="
M28.333334,51.000000 
	C27.988062,50.534351 27.976124,50.068707 28.248566,48.992126 
	C28.629852,45.988869 28.726761,43.596539 29.071283,41.127174 
	C29.490757,41.031372 29.662615,41.012596 29.957056,40.981750 
	C30.079641,40.969673 30.324842,40.993519 30.245220,41.430634 
	C30.144201,44.233479 30.122808,46.599205 30.101416,48.964935 
	C30.085585,49.417297 30.069756,49.869659 30.026962,50.661011 
	C29.555555,51.000000 29.111113,51.000000 28.333334,51.000000 
z"/>
<path fill="#211917" opacity="1.000000" stroke="none" 
	d="
M1.000000,28.000000 
	C1.000000,27.250000 1.000000,26.500000 1.362280,25.375576 
	C2.690383,25.007717 3.656206,25.014280 4.756144,25.012423 
	C4.890258,25.004002 5.151055,24.964449 5.091160,25.293026 
	C4.728697,26.415726 4.426129,27.209846 3.732152,28.002157 
	C2.560496,28.000231 1.780248,28.000116 1.000000,28.000000 
z"/>
<path fill="#726961" opacity="1.000000" stroke="none" 
	d="
M8.000000,51.000000 
	C7.250000,51.000000 6.500000,51.000000 5.272153,50.739117 
	C4.534864,49.981510 4.275423,49.484791 4.014337,48.657898 
	C4.003684,47.886745 3.994676,47.445766 4.026479,46.986458 
	C4.067290,46.968136 4.148128,46.929787 4.348838,46.952164 
	C4.549549,46.974545 4.952929,47.030575 4.991467,47.258774 
	C5.345021,47.636131 5.660036,47.785282 6.397119,47.846302 
	C7.353287,47.539497 7.887386,47.320827 8.611534,47.457909 
	C8.950346,48.037647 9.099110,48.261635 9.003173,48.885254 
	C8.505648,49.856590 8.252824,50.428295 8.000000,51.000000 
z"/>
<path fill="#0E0504" opacity="1.000000" stroke="none" 
	d="
M4.622030,25.020844 
	C3.656206,25.014280 2.690383,25.007717 1.362280,25.000576 
	C1.000000,24.250000 1.000000,23.500000 1.000000,22.375000 
	C2.051811,22.297272 3.103623,22.594542 4.481466,23.351542 
	C4.745675,24.214460 4.683853,24.617653 4.622030,25.020844 
z"/>
<path fill="#DAE7E1" opacity="1.000000" stroke="none" 
	d="
M50.174187,24.604414 
	C50.103527,22.336258 50.032867,20.068100 49.897598,17.374241 
	C50.085300,16.436323 50.337612,15.924109 50.794960,15.205947 
	C51.000000,18.030594 51.000000,21.061186 50.818741,24.394398 
	C50.637486,24.697016 50.174191,24.604414 50.174187,24.604414 
z"/>
<path fill="#5D605E" opacity="1.000000" stroke="none" 
	d="
M12.583333,1.000000 
	C12.546782,1.639531 12.093563,2.279062 10.945328,2.961628 
	C9.497910,2.997905 8.745511,2.991145 7.995236,2.653659 
	C7.998241,1.881955 7.999121,1.440977 8.000000,1.000000 
	C9.388889,1.000000 10.777778,1.000000 12.583333,1.000000 
z"/>
<path fill="#AC9A92" opacity="1.000000" stroke="none" 
	d="
M8.416666,51.000000 
	C8.252824,50.428295 8.505648,49.856590 9.277185,48.967861 
	C10.616706,48.740067 11.437513,48.829296 12.258320,48.918530 
	C12.471632,49.429218 12.684944,49.939911 12.949128,50.725300 
	C11.611111,51.000000 10.222222,51.000000 8.416666,51.000000 
z"/>
<path fill="#666D7B" opacity="1.000000" stroke="none" 
	d="
M1.000000,4.375000 
	C1.930954,4.302647 2.861909,4.605293 4.154375,5.025083 
	C3.579889,5.703207 2.643893,6.264189 1.353948,6.912585 
	C1.000000,6.250000 1.000000,5.500000 1.000000,4.375000 
z"/>
<path fill="#FFFDFA" opacity="1.000000" stroke="none" 
	d="
M1.000000,12.333334 
	C2.090090,11.858964 3.180181,11.717928 4.599542,11.629377 
	C4.928812,11.681864 5.021937,11.965487 5.005934,12.262167 
	C4.966530,12.954072 4.943131,13.349298 4.919731,13.744523 
	C3.872685,13.788941 2.825640,13.833361 1.389297,13.938890 
	C1.000000,13.555555 1.000000,13.111112 1.000000,12.333334 
z"/>
<path fill="#403633" opacity="1.000000" stroke="none" 
	d="
M4.015981,48.988068 
	C4.275423,49.484791 4.534864,49.981510 4.897153,50.739117 
	C3.666667,50.666668 2.333333,50.333332 1.376166,49.500816 
	C2.506882,48.997112 3.261431,48.992588 4.015981,48.988068 
z"/>
<path fill="#1A1311" opacity="1.000000" stroke="none" 
	d="
M3.022880,33.026154 
	C2.549405,32.698589 2.075930,32.371025 1.301228,32.021729 
	C1.000000,31.555555 1.000000,31.111111 1.377318,30.333708 
	C2.509678,30.001993 3.264719,30.003235 4.052261,30.370914 
	C4.144567,31.469225 4.204372,32.201099 3.953702,32.954254 
	C3.436444,32.992405 3.229662,33.009281 3.022880,33.026154 
z"/>
<path fill="#5D605E" opacity="1.000000" stroke="none" 
	d="
M1.000000,44.375000 
	C1.441337,43.994534 1.882674,43.989067 2.673952,44.323158 
	C3.398637,45.418407 3.773382,46.174095 4.148128,46.929787 
	C4.148128,46.929787 4.067290,46.968136 3.654628,46.985451 
	C2.494644,47.001846 1.747322,47.000923 1.000000,47.000000 
	C1.000000,46.250000 1.000000,45.500000 1.000000,44.375000 
z"/>
<path fill="#100705" opacity="1.000000" stroke="none" 
	d="
M4.019761,30.004478 
	C3.264719,30.003235 2.509678,30.001993 1.377318,30.000374 
	C1.000000,29.555502 1.000000,29.111002 1.000000,28.333252 
	C1.780248,28.000116 2.560496,28.000231 3.743787,28.336899 
	C4.104473,29.117126 4.062117,29.560802 4.019761,30.004478 
z"/>
<path fill="#4C4A49" opacity="1.000000" stroke="none" 
	d="
M1.000000,47.333496 
	C1.747322,47.000923 2.494644,47.001846 3.613817,47.003777 
	C3.994676,47.445766 4.003684,47.886745 4.014337,48.657898 
	C3.261431,48.992588 2.506882,48.997112 1.376166,49.000816 
	C1.000000,48.555664 1.000000,48.111328 1.000000,47.333496 
z"/>
<path fill="#4F5662" opacity="1.000000" stroke="none" 
	d="
M7.625000,1.000000 
	C7.999121,1.440977 7.998241,1.881955 7.662758,2.658369 
	C6.884602,2.994815 6.441050,2.995823 5.997498,2.996831 
	C5.680776,2.528153 5.364054,2.059474 5.023666,1.295398 
	C5.750000,1.000000 6.500000,1.000000 7.625000,1.000000 
z"/>
<path fill="#564952" opacity="1.000000" stroke="none" 
	d="
M27.006033,2.465530 
	C27.292492,2.120769 27.578951,1.776009 27.932705,1.215624 
	C28.444445,1.000000 28.888887,1.000000 29.666666,1.000000 
	C29.997576,1.440801 29.995150,1.881602 29.744125,2.695153 
	C29.328934,3.103062 29.162340,3.138221 28.679728,3.015199 
	C27.911148,2.726522 27.458591,2.596026 27.006033,2.465530 
z"/>
<path fill="#EFD5C1" opacity="1.000000" stroke="none" 
	d="
M20.333332,51.000000 
	C20.038847,50.562622 20.077694,50.125248 20.446953,49.360558 
	C21.194183,49.058807 21.611004,49.084370 22.027822,49.109928 
	C22.022423,49.529953 22.017025,49.949982 22.005814,50.685005 
	C21.555555,51.000000 21.111111,51.000000 20.333332,51.000000 
z"/>
<path fill="#5A5650" opacity="1.000000" stroke="none" 
	d="
M49.162148,11.254621 
	C49.461304,10.688645 49.932568,10.365450 50.701916,10.021128 
	C51.000000,10.444445 51.000000,10.888889 51.000000,11.666668 
	C50.444752,11.832468 49.889507,11.664934 49.162148,11.254621 
z"/>
<path fill="#61432C" opacity="1.000000" stroke="none" 
	d="
M47.500000,51.000000 
	C48.088219,50.602394 49.176437,50.204788 50.632328,49.903591 
	C50.000000,50.333332 49.000000,50.666668 47.500000,51.000000 
z"/>
<path fill="#D5B9A3" opacity="1.000000" stroke="none" 
	d="
M41.714035,50.052616 
	C42.058403,50.091587 42.017860,50.545063 42.008930,50.772530 
	C41.250000,51.000000 40.500000,51.000000 39.375000,51.000000 
	C39.789890,50.671215 40.579781,50.342430 41.714035,50.052616 
z"/>
<path fill="#E7D2BB" opacity="1.000000" stroke="none" 
	d="
M18.735369,49.171074 
	C18.989805,49.438416 19.010603,49.884071 19.015699,50.664864 
	C19.000000,51.000000 18.500000,51.000000 18.250000,51.000000 
	C18.167242,50.449795 18.334484,49.899593 18.735369,49.171074 
z"/>
<path fill="#8E998F" opacity="1.000000" stroke="none" 
	d="
M50.135452,24.947790 
	C50.174191,24.604414 50.637486,24.697016 50.818741,24.848507 
	C51.000000,25.444445 51.000000,25.888889 51.000000,26.666668 
	C50.698906,26.430389 50.397808,25.860777 50.135452,24.947790 
z"/>
<path fill="#6E6861" opacity="1.000000" stroke="none" 
	d="
M51.000000,35.666668 
	C50.798080,35.402443 50.596165,34.804886 50.697124,34.103661 
	C51.000000,34.444447 51.000000,34.888889 51.000000,35.666668 
z"/>
<path fill="#312A24" opacity="1.000000" stroke="none" 
	d="
M51.000000,1.500000 
	C50.726685,1.822207 50.453365,1.644413 50.090027,1.233309 
	C50.333332,1.000000 50.666668,1.000000 51.000000,1.500000 
z"/>
<path fill="#69655F" opacity="1.000000" stroke="none" 
	d="
M19.750000,1.000000 
	C19.725901,1.108354 19.451803,1.216707 19.088852,1.162530 
	C19.000000,1.000000 19.500000,1.000000 19.750000,1.000000 
z"/>
<path fill="#4F5662" opacity="1.000000" stroke="none" 
	d="
M1.500000,1.000000 
	C1.897831,1.322208 1.710260,1.582981 1.218645,1.891159 
	C1.000000,1.666667 1.000000,1.333333 1.500000,1.000000 
z"/>
<path fill="#5B5A56" opacity="1.000000" stroke="none" 
	d="
M11.890215,16.952778 
	C11.890215,16.952778 12.344216,16.980068 12.604441,17.462605 
	C13.144553,18.900129 13.424439,19.855122 13.704326,20.810112 
	C14.149113,20.525723 14.593901,20.241335 15.190161,19.842823 
	C15.341634,19.728703 15.692686,19.872343 15.574308,20.140583 
	C15.323925,20.770872 15.191920,21.132917 14.559912,21.345905 
	C13.809827,22.120266 13.559747,23.043690 13.205521,24.124243 
	C13.042324,24.525911 12.979406,24.769449 12.587723,25.012180 
	C11.829138,25.020124 11.395453,25.027880 10.978561,24.696585 
	C10.995457,23.905312 10.995559,23.453085 10.995662,23.000860 
	C10.996163,21.293398 10.996666,19.585934 10.981924,17.453152 
	C10.966681,17.027832 11.021124,16.986141 11.251598,16.976570 
	C11.482072,16.967001 11.890215,16.952778 11.890215,16.952778 
z"/>
<path fill="#74706C" opacity="1.000000" stroke="none" 
	d="
M10.618124,23.000519 
	C10.995559,23.453085 10.995457,23.905312 10.931911,25.008034 
	C9.918372,26.428143 8.968274,27.197754 8.008165,27.592850 
	C7.973602,26.468603 7.949049,25.718874 7.944867,24.642967 
	C7.967437,23.881273 7.969635,23.445757 7.971833,23.010239 
	C8.728084,23.006886 9.484335,23.003532 10.618124,23.000519 
z"/>
<path fill="#504E4A" opacity="1.000000" stroke="none" 
	d="
M7.568544,23.011852 
	C7.969635,23.445757 7.967437,23.881273 7.598229,24.652237 
	C6.537831,24.979937 5.844443,24.972193 5.151055,24.964449 
	C5.151055,24.964449 4.890258,25.004002 4.756144,25.012423 
	C4.683853,24.617653 4.745675,24.214460 4.777029,23.506474 
	C5.552793,23.138939 6.359024,23.076202 7.568544,23.011852 
z"/>
<path fill="#FBEBD9" opacity="1.000000" stroke="none" 
	d="
M30.477085,48.923584 
	C30.122808,46.599205 30.144201,44.233479 30.539806,41.391197 
	C31.958475,40.304588 33.002934,39.694530 34.047394,39.084473 
	C35.604198,40.868626 37.161003,42.652782 38.863297,44.739319 
	C36.290108,46.321877 33.571430,47.602055 30.477085,48.923584 
z"/>
<path fill="#FEFCF3" opacity="1.000000" stroke="none" 
	d="
M42.831676,35.046173 
	C43.675259,35.320065 44.518841,35.593960 45.943153,35.960342 
	C46.523880,36.052834 46.954109,36.296532 46.954109,36.296532 
	C47.548920,36.714489 48.143734,37.132450 48.859070,37.812408 
	C44.129917,43.170399 40.978771,43.078194 38.059937,37.188248 
	C38.101372,36.622829 38.205166,36.226845 38.510628,36.136162 
	C39.339230,35.685940 39.862366,35.326397 40.691963,34.979908 
	C41.609512,35.010696 42.220592,35.028435 42.831676,35.046173 
z"/>
<path fill="#FBEBD9" opacity="1.000000" stroke="none" 
	d="
M49.997444,44.833130 
	C48.297329,45.820187 46.553127,46.438538 44.433502,47.092735 
	C43.171337,46.590797 42.284592,46.053013 41.199013,45.266182 
	C43.891472,43.324856 46.700439,40.298988 49.997444,44.833130 
z"/>
<path fill="#FDE1C6" opacity="1.000000" stroke="none" 
	d="
M37.042210,37.435040 
	C36.598690,37.642097 36.155167,37.849155 35.264153,38.041992 
	C34.816658,38.027767 34.420921,38.012192 34.220154,37.775330 
	C33.658298,37.351692 33.297218,37.164913 32.739574,36.877254 
	C32.297218,36.596233 32.124317,36.362225 32.071072,35.740601 
	C32.527420,34.622906 32.937008,33.838974 33.515480,33.058723 
	C33.684372,33.062408 34.028477,33.032898 34.260567,33.019573 
	C34.492661,33.006248 34.957336,32.990250 34.984959,32.981606 
	C35.012581,32.972958 35.070450,32.974419 35.063324,33.259361 
	C35.335876,34.225620 35.615559,34.906937 35.966076,35.960274 
	C36.372013,36.699875 36.707111,37.067455 37.042210,37.435040 
z"/>
<path fill="#EFDCC3" opacity="1.000000" stroke="none" 
	d="
M32.024311,36.074356 
	C32.124317,36.362225 32.297218,36.596233 32.897530,37.155190 
	C33.641670,37.693398 34.031296,37.852795 34.420921,38.012192 
	C34.420921,38.012192 34.816658,38.027767 35.012852,38.065681 
	C34.971287,38.348331 34.733532,38.593071 34.271584,38.961143 
	C33.002934,39.694530 31.958475,40.304588 30.619431,40.954082 
	C30.324842,40.993519 30.079641,40.969673 30.014076,40.637661 
	C30.002575,39.844105 30.056639,39.382565 30.176819,38.598900 
	C30.836727,37.542641 31.430521,36.808498 32.024311,36.074356 
z"/>
<path fill="#CAB39B" opacity="1.000000" stroke="none" 
	d="
M37.270508,37.303345 
	C36.707111,37.067455 36.372013,36.699875 36.290146,35.896805 
	C36.748409,35.382019 36.953442,35.302719 37.210079,35.327660 
	C37.261681,35.431904 37.493771,35.447739 37.671867,35.642288 
	C37.968365,35.966846 38.086765,36.096848 38.205166,36.226845 
	C38.205166,36.226845 38.101372,36.622829 38.052589,36.821709 
	C37.835476,37.070946 37.667141,37.121300 37.270508,37.303345 
z"/>
<path fill="#8B8072" opacity="1.000000" stroke="none" 
	d="
M48.685242,16.880516 
	C49.461742,21.392418 46.923573,22.818300 42.656990,22.604130 
	C42.148674,20.753803 42.118484,19.314892 42.091061,17.558878 
	C42.052402,16.819714 42.010979,16.397654 42.004944,15.742649 
	C42.040337,15.509706 42.152016,15.051899 42.152016,15.051899 
	C44.220058,15.610714 46.288101,16.169531 48.685242,16.880516 
z"/>
<path fill="#3F352D" opacity="1.000000" stroke="none" 
	d="
M37.996063,6.077591 
	C38.824421,6.370659 39.652775,6.663727 40.834229,6.984324 
	C41.184414,7.457074 41.181503,7.902296 41.143887,8.959847 
	C40.863743,10.084576 40.618298,10.596974 39.989449,11.074499 
	C39.099033,11.028115 38.592018,11.016604 37.890141,10.796579 
	C37.232712,10.018536 36.770153,9.449006 36.214264,8.566283 
	C35.793354,7.688480 35.465775,7.123870 35.229454,6.470902 
	C35.320717,6.382545 35.420643,6.148972 35.420643,6.148972 
	C35.420643,6.148972 35.699455,6.128150 36.172653,6.083448 
	C37.095921,6.051694 37.545994,6.064643 37.996063,6.077591 
z"/>
<path fill="#746E67" opacity="1.000000" stroke="none" 
	d="
M40.372856,11.109372 
	C40.618298,10.596974 40.863743,10.084576 41.185524,9.291727 
	C41.659027,10.211405 42.056194,11.411532 41.948986,12.936328 
	C41.188572,13.506882 40.932529,13.752768 40.550285,13.999678 
	C40.424080,14.000704 40.165520,14.000360 40.068604,13.736187 
	C39.911003,13.294508 39.850319,13.117001 39.878693,12.632217 
	C40.102783,11.919751 40.237820,11.514562 40.372856,11.109372 
z"/>
<path fill="#655C55" opacity="1.000000" stroke="none" 
	d="
M43.890381,5.254706 
	C44.114868,4.681871 44.306259,4.423074 44.782852,4.096274 
	C45.328781,4.762020 45.663624,5.550577 45.984459,6.681874 
	C45.228157,7.018264 44.485863,7.011915 43.371948,7.002886 
	C43.261276,6.504783 43.522224,6.009359 43.890381,5.254706 
z"/>
<path fill="#423D3A" opacity="1.000000" stroke="none" 
	d="
M40.676487,13.998652 
	C40.932529,13.752768 41.188572,13.506882 41.685696,13.149578 
	C41.968895,13.486242 42.011009,13.934325 42.102570,14.717154 
	C42.152016,15.051899 42.040337,15.509706 41.704487,15.616741 
	C41.070824,15.412804 40.773006,15.101831 40.565239,14.603236 
	C40.655281,14.415614 40.676487,13.998652 40.676487,13.998652 
z"/>
<path fill="#958D84" opacity="1.000000" stroke="none" 
	d="
M46.957512,29.645000 
	C45.365173,30.941261 43.731155,31.891453 41.688950,33.134628 
	C41.280762,33.427608 41.128582,33.502468 40.919979,33.018570 
	C40.715424,31.497021 40.719475,30.459368 40.963676,29.249517 
	C41.485317,28.601559 41.766800,28.125797 42.127022,27.480785 
	C42.205765,27.311533 42.425465,27.009672 42.425465,27.009672 
	C43.922253,27.772758 45.419044,28.535845 46.957512,29.645000 
z"/>
<path fill="#423D3A" opacity="1.000000" stroke="none" 
	d="
M42.088291,17.875982 
	C42.118484,19.314892 42.148674,20.753803 42.284882,22.612446 
	C42.274090,23.768391 42.157284,24.504604 41.685509,25.597185 
	C40.934788,25.925264 40.539040,25.896975 40.028679,25.685482 
	C39.740276,25.257101 39.509609,25.090809 39.089634,24.760521 
	C38.999352,24.338100 39.041504,24.158558 39.273682,23.861656 
	C39.700645,23.551239 39.870979,23.310965 40.254219,22.793821 
	C41.051914,21.001438 41.570103,19.438711 42.088291,17.875982 
z"/>
<path fill="#544A49" opacity="1.000000" stroke="none" 
	d="
M40.143291,25.868685 
	C40.539040,25.896975 40.934788,25.925264 41.626747,25.965340 
	C41.997025,26.153414 42.071083,26.329702 42.285305,26.757832 
	C42.425465,27.009672 42.205765,27.311533 41.681210,27.406895 
	C40.585732,27.691364 40.014809,27.880470 39.328377,27.880672 
	C39.212868,27.691765 39.298111,27.257200 39.551018,26.934355 
	C39.917046,26.363901 40.030167,26.116293 40.143291,25.868685 
z"/>
<path fill="#1C0507" opacity="1.000000" stroke="none" 
	d="
M13.920749,11.334109 
	C13.920749,11.334109 14.324208,11.410242 14.371327,11.782282 
	C14.920960,12.482448 15.423474,12.810575 15.908413,13.390299 
	C16.217657,12.986333 16.544476,12.330770 16.909637,11.505854 
	C17.052654,11.112179 17.222752,10.961975 17.911663,10.927883 
	C18.969458,11.001218 19.573862,11.032558 20.128563,11.437828 
	C19.835382,12.524250 19.591902,13.236745 19.383945,13.952425 
	C19.419470,13.955610 19.483688,13.923409 19.331318,13.700949 
	C19.110081,14.165682 19.041210,14.852876 18.892258,15.586611 
	C18.812178,15.633152 18.849241,15.814651 18.875580,16.190689 
	C18.943924,16.814499 18.985931,17.062269 18.854950,17.437515 
	C18.520243,17.961687 18.358524,18.358381 18.010342,18.987232 
	C17.113482,19.437042 16.403084,19.654692 15.692686,19.872341 
	C15.692686,19.872343 15.341634,19.728703 15.216150,19.444790 
	C14.403218,17.798492 13.715769,16.436108 13.028319,15.073724 
	C13.283652,14.863628 13.538985,14.653532 13.702725,13.833939 
	C13.729304,12.662083 13.847476,12.099724 13.961782,11.484926 
	C13.957916,11.432487 13.920749,11.334109 13.920749,11.334109 
z"/>
<path fill="#1C1A19" opacity="1.000000" stroke="none" 
	d="
M11.908565,11.084503 
	C11.193328,11.122271 10.478092,11.160038 9.384948,10.822334 
	C8.972749,9.909322 8.938457,9.371779 8.931247,8.480425 
	C9.063755,7.190761 9.169182,6.254908 9.535303,5.328063 
	C10.138208,5.396349 10.480421,5.455627 10.822633,5.514906 
	C11.994330,6.766273 13.166029,8.017638 13.993124,9.560747 
	C13.068536,10.263161 12.488550,10.673832 11.908565,11.084503 
z"/>
<path fill="#DFDBD9" opacity="1.000000" stroke="none" 
	d="
M15.925988,13.138701 
	C15.423474,12.810575 14.920960,12.482448 14.527544,11.649088 
	C15.982323,9.637633 17.328005,8.131412 19.090797,6.313005 
	C19.507908,6.000819 19.995096,5.993040 20.157972,6.248190 
	C20.652777,6.732917 20.984707,6.962493 21.134777,7.480348 
	C19.788038,8.807714 18.623154,9.846803 17.458271,10.885891 
	C17.222752,10.961975 17.052654,11.112179 16.549299,11.791656 
	C16.075741,12.544108 16.000864,12.841405 15.925988,13.138701 
z"/>
<path fill="#666A6F" opacity="1.000000" stroke="none" 
	d="
M10.872578,5.098300 
	C10.480421,5.455627 10.138208,5.396349 9.113602,5.240579 
	C7.878282,5.257740 7.325356,5.371394 6.772431,5.485047 
	C6.772431,5.485047 6.347105,5.472697 6.144113,5.411141 
	C5.956564,4.825765 5.972008,4.301944 5.992475,3.387478 
	C6.441050,2.995823 6.884602,2.994815 7.660633,2.989096 
	C8.745511,2.991145 9.497910,2.997905 10.626461,3.009588 
	C10.975916,3.570240 10.949220,4.125967 10.872578,5.098300 
z"/>
<path fill="#69655F" opacity="1.000000" stroke="none" 
	d="
M19.995096,5.993040 
	C19.995096,5.993040 19.507908,6.000819 19.266020,6.029870 
	C18.700480,5.256900 18.376827,4.454880 18.025448,3.328382 
	C18.666128,3.531647 19.334532,4.059392 20.061691,5.117033 
	C20.120447,5.646931 19.995096,5.993040 19.995096,5.993040 
z"/>
<path fill="#0E0807" opacity="1.000000" stroke="none" 
	d="
M11.892525,11.071358 
	C12.488550,10.673832 13.068536,10.263161 13.933443,9.911944 
	C14.184087,10.200466 14.149808,10.429533 14.018139,10.996355 
	C13.920749,11.334109 13.957916,11.432487 13.692625,11.530939 
	C12.912007,11.453786 12.396681,11.278181 11.881355,11.102575 
	C11.881355,11.102575 11.876486,11.058213 11.892525,11.071358 
z"/>
<path fill="#FFF9F1" opacity="1.000000" stroke="none" 
	d="
M40.723522,29.421717 
	C40.719475,30.459368 40.715424,31.497021 40.907532,33.042351 
	C41.103687,33.550026 41.191528,33.696644 41.191528,33.696644 
	C41.453907,33.935154 41.716286,34.173664 42.405170,34.729172 
	C42.220592,35.028435 41.609512,35.010696 40.269512,34.852974 
	C38.967979,34.604465 38.395363,34.495941 37.651970,34.194519 
	C36.677616,33.659218 35.874031,33.316818 35.070450,32.974419 
	C35.070450,32.974419 35.012581,32.972958 35.053421,32.636623 
	C35.808918,30.831747 36.523579,29.363207 37.432594,27.749401 
	C38.024731,27.072386 38.422508,26.540636 38.909847,26.215740 
	C39.002476,26.735342 39.102043,27.013544 39.298111,27.257200 
	C39.298111,27.257200 39.212868,27.691765 39.357101,27.874382 
	C39.501335,28.057001 39.545982,28.088398 39.548508,28.393471 
	C39.869225,28.843615 40.187424,28.988688 40.526360,29.231279 
	C40.547096,29.328798 40.723522,29.421717 40.723522,29.421717 
z"/>
<path fill="#FEF7E2" opacity="1.000000" stroke="none" 
	d="
M41.282211,33.531319 
	C41.191528,33.696644 41.103687,33.550026 41.116135,33.526245 
	C41.128582,33.502468 41.280762,33.427608 41.272942,33.388573 
	C41.265118,33.349533 41.365868,33.007355 41.365868,33.007355 
	C41.365868,33.007355 41.372898,33.365997 41.282211,33.531319 
z"/>
<path fill="#564F45" opacity="1.000000" stroke="none" 
	d="
M46.925167,36.075130 
	C46.954109,36.296532 46.523880,36.052834 46.288101,35.978401 
	C46.333622,35.887226 46.614925,35.870480 46.925167,36.075130 
z"/>
<path fill="#1E1F21" opacity="1.000000" stroke="none" 
	d="
M8.904165,8.834237 
	C8.938457,9.371779 8.972749,9.909322 9.027912,10.853832 
	C8.254719,11.489016 7.460654,11.717230 6.094529,11.885233 
	C5.355626,11.871844 5.188781,11.918666 5.021937,11.965487 
	C5.021937,11.965487 4.928812,11.681864 5.014249,11.559477 
	C5.885438,10.618417 6.671191,9.799745 7.992867,8.943106 
	C8.528791,8.905138 8.904165,8.834237 8.904165,8.834237 
z"/>
<path fill="#FBF5F3" opacity="1.000000" stroke="none" 
	d="
M13.109164,15.400007 
	C13.715769,16.436108 14.403218,17.798492 15.064678,19.558910 
	C14.593901,20.241335 14.149113,20.525723 13.704326,20.810112 
	C13.424439,19.855122 13.144553,18.900129 12.831633,17.472609 
	C12.929069,16.575483 13.059539,16.150887 13.109164,15.400007 
z"/>
<path fill="#2B2423" opacity="1.000000" stroke="none" 
	d="
M11.894775,11.469170 
	C12.396681,11.278181 12.912007,11.453786 13.696491,11.583378 
	C13.847476,12.099724 13.729304,12.662083 13.539703,13.365507 
	C12.948248,12.949636 12.428222,12.392700 11.894775,11.469170 
z"/>
<path fill="#D8D9D4" opacity="1.000000" stroke="none" 
	d="
M5.005934,12.262167 
	C5.188781,11.918666 5.355626,11.871844 5.768910,11.907677 
	C5.859420,12.580675 5.703490,13.171020 5.233645,13.752943 
	C4.943131,13.349298 4.966530,12.954072 5.005934,12.262167 
z"/>
<path fill="#473F3F" opacity="1.000000" stroke="none" 
	d="
M11.833128,16.793575 
	C11.890215,16.952778 11.482072,16.967001 11.279152,16.956169 
	C11.309503,16.841681 11.542771,16.738026 11.833128,16.793575 
z"/>
<path fill="#45484B" opacity="1.000000" stroke="none" 
	d="
M8.931246,8.480425 
	C8.904165,8.834237 8.528791,8.905138 8.340481,8.926418 
	C7.837335,7.944694 7.522501,6.941690 6.990049,5.711867 
	C7.325356,5.371394 7.878282,5.257740 8.852908,5.231571 
	C9.169182,6.254908 9.063755,7.190761 8.931246,8.480425 
z"/>
<path fill="#FDF9EA" opacity="1.000000" stroke="none" 
	d="
M35.138195,6.559260 
	C35.465775,7.123870 35.793354,7.688480 35.905178,8.590689 
	C35.276283,8.945252 34.863140,8.962217 34.150368,8.827790 
	C33.251144,8.413838 32.651562,8.151278 31.956936,7.664209 
	C31.601419,7.237400 31.311926,7.093452 30.979080,6.781645 
	C30.964741,6.555433 30.893280,6.107769 31.141220,5.784268 
	C31.512625,5.218717 31.636093,4.976665 31.759563,4.734612 
	C32.391953,5.062511 33.024338,5.390411 34.058777,6.009218 
	C34.621590,6.556332 34.847378,6.642710 35.138195,6.559260 
z"/>
<path fill="#FDF9EA" opacity="1.000000" stroke="none" 
	d="
M28.995749,3.173380 
	C29.162340,3.138221 29.328934,3.103062 29.747410,3.025745 
	C30.535408,3.411983 31.071527,3.840379 31.683605,4.501694 
	C31.636093,4.976665 31.512625,5.218717 30.813877,5.736028 
	C29.817274,5.877506 29.395952,5.743725 28.980742,5.305370 
	C28.989819,4.391658 28.992785,3.782519 28.995749,3.173380 
z"/>
<path fill="#645F5D" opacity="1.000000" stroke="none" 
	d="
M37.895576,5.807177 
	C37.545994,6.064643 37.095921,6.051694 36.307533,6.046710 
	C36.147331,5.489799 36.325451,4.924924 36.748367,4.186403 
	C37.260475,4.520760 37.527786,5.028761 37.895576,5.807177 
z"/>
<path fill="#826147" opacity="1.000000" stroke="none" 
	d="
M35.229454,6.470902 
	C34.847378,6.642710 34.621590,6.556332 34.398865,6.116927 
	C34.517876,5.964175 34.698845,5.994622 35.150230,6.087020 
	C35.420643,6.148972 35.320717,6.382545 35.229454,6.470902 
z"/>
<path fill="#FFFDFA" opacity="1.000000" stroke="none" 
	d="
M28.679728,3.015199 
	C28.992785,3.782519 28.989819,4.391658 28.790302,5.371605 
	C28.593752,5.742414 28.211853,5.866378 27.789021,5.795916 
	C26.231865,5.728699 25.097542,5.731943 24.137226,5.459922 
	C24.460251,4.566627 24.609266,3.948599 24.758282,3.330570 
	C25.312462,3.098188 25.866640,2.865806 26.713427,2.549477 
	C27.458591,2.596026 27.911148,2.726522 28.679728,3.015199 
z"/>
<path fill="#FEF9F5" opacity="1.000000" stroke="none" 
	d="
M24.392853,3.360215 
	C24.609266,3.948599 24.460251,4.566627 24.071426,5.658301 
	C23.831615,6.131947 24.032333,6.498473 23.703699,6.626908 
	C22.688921,6.900919 22.002779,7.046494 21.316635,7.192070 
	C20.984707,6.962493 20.652777,6.732917 20.157972,6.248190 
	C19.995096,5.993040 20.120447,5.646931 20.113304,5.463057 
	C21.413248,4.649408 22.720335,4.019634 24.392853,3.360215 
z"/>
<path fill="#E8D7D0" opacity="1.000000" stroke="none" 
	d="
M12.584305,48.850983 
	C11.437513,48.829296 10.616706,48.740067 9.521887,48.568230 
	C9.099110,48.261635 8.950346,48.037647 8.570003,47.146225 
	C8.203736,45.362137 8.069051,44.245483 7.952227,42.776108 
	C7.978835,41.952564 7.987580,41.481750 8.415943,41.008263 
	C9.396550,40.976597 9.957541,40.947605 10.746469,40.930489 
	C11.270555,41.020901 11.571388,41.048733 11.946415,41.357410 
	C12.765095,42.760632 13.514267,43.832310 14.221657,45.124687 
	C14.179874,45.345390 14.100282,45.787533 14.100281,45.787533 
	C13.703616,46.786167 13.306952,47.784805 12.584305,48.850983 
z"/>
<path fill="#726C72" opacity="1.000000" stroke="none" 
	d="
M14.474133,45.843193 
	C14.100282,45.787533 14.179874,45.345390 14.485619,45.003242 
	C15.528109,44.440571 16.264856,44.220047 17.001602,43.999527 
	C17.008991,44.352993 17.016380,44.706463 17.028164,45.322639 
	C16.304369,45.689854 15.576177,45.794353 14.474133,45.843193 
z"/>
<path fill="#837273" opacity="1.000000" stroke="none" 
	d="
M26.465174,45.224922 
	C25.857729,45.449677 25.250284,45.674431 24.188171,45.685188 
	C22.897089,44.664131 22.060671,43.857071 21.106449,42.750408 
	C20.913429,42.030449 20.838209,41.610085 21.100044,41.132462 
	C21.891193,41.055862 22.345284,41.036518 22.963554,41.243092 
	C23.443054,41.656551 23.758379,41.844090 24.332943,42.018112 
	C24.764544,41.989025 24.936903,41.973454 25.296772,41.844215 
	C25.717110,41.537323 25.887350,41.299305 25.996885,40.763535 
	C25.998632,40.341942 25.998495,40.173302 26.250977,40.011799 
	C26.672026,40.023067 26.840456,40.027195 27.088787,40.211357 
	C27.311859,40.625534 27.515663,40.779247 27.857857,40.919617 
	C27.935617,40.986698 28.109169,41.096542 27.976011,41.360809 
	C27.720299,41.779671 27.597744,41.934265 27.366081,42.187340 
	C27.126238,42.437031 27.028008,42.607044 26.910994,43.108017 
	C26.728193,44.021759 26.596684,44.623337 26.465174,45.224922 
z"/>
<path fill="#FDECE2" opacity="1.000000" stroke="none" 
	d="
M26.608475,45.608807 
	C26.596684,44.623337 26.728193,44.021759 27.094425,43.077179 
	C27.591211,42.567333 27.639893,42.352230 27.475189,42.088860 
	C27.597744,41.934265 27.720299,41.779671 28.155548,41.381569 
	C28.468243,41.138065 28.823668,41.204208 28.823669,41.204208 
	C28.726761,43.596539 28.629852,45.988869 28.252758,48.642120 
	C27.565639,47.932922 27.158709,46.962811 26.608475,45.608807 
z"/>
<path fill="#79665F" opacity="1.000000" stroke="none" 
	d="
M21.224251,43.050007 
	C22.060671,43.857071 22.897089,44.664131 23.867172,45.731758 
	C23.541031,46.526043 23.081221,47.059761 22.311840,47.533703 
	C22.002266,47.473927 21.963940,47.026257 21.967680,46.738178 
	C21.728544,45.950069 21.485666,45.450039 21.216518,44.633408 
	C21.201584,43.894539 21.212917,43.472275 21.224251,43.050007 
z"/>
<path fill="#DBCAB0" opacity="1.000000" stroke="none" 
	d="
M22.055962,48.908428 
	C21.611004,49.084370 21.194183,49.058807 20.465046,49.031326 
	C20.079807,48.581577 20.006889,48.133747 20.250530,47.334793 
	C20.567089,46.983669 21.040422,46.949413 21.269707,46.987812 
	C21.498989,47.026211 21.963940,47.026257 21.963940,47.026257 
	C21.963940,47.026257 22.002266,47.473927 21.996956,47.703812 
	C22.119722,48.179688 22.150541,48.437431 22.055962,48.908428 
z"/>
<path fill="#DFD7CC" opacity="1.000000" stroke="none" 
	d="
M7.996325,41.010933 
	C7.987580,41.481750 7.978835,41.952564 7.671279,42.637280 
	C6.595820,42.613705 5.819171,42.376232 5.042522,42.138763 
	C4.435142,41.243282 3.827761,40.347805 3.186376,39.165367 
	C3.598920,38.398613 4.045468,37.918823 4.989115,37.232307 
	C5.661384,37.054699 5.836555,37.083805 6.038352,37.398315 
	C6.355816,38.144459 6.646656,38.605198 7.064450,39.313011 
	C7.459712,40.043697 7.728019,40.527317 7.996325,41.010933 
z"/>
<path fill="#AD9E98" opacity="1.000000" stroke="none" 
	d="
M5.031886,42.462048 
	C5.819171,42.376232 6.595820,42.613705 7.653417,42.990005 
	C8.069051,44.245483 8.203736,45.362137 8.379953,46.790474 
	C7.887386,47.320827 7.353287,47.539497 6.394894,47.517300 
	C5.648291,46.517612 5.325982,45.758797 4.990845,44.770821 
	C4.978018,44.541664 4.983078,44.082661 4.983077,44.082661 
	C4.995801,43.650219 5.008526,43.217773 5.031886,42.462048 
z"/>
<path fill="#8C857B" opacity="1.000000" stroke="none" 
	d="
M4.651485,44.039993 
	C4.983078,44.082661 4.978018,44.541664 4.987998,45.109383 
	C4.982962,46.128262 4.967946,46.579418 4.952929,47.030575 
	C4.952929,47.030575 4.549549,46.974545 4.348838,46.952164 
	C3.773382,46.174095 3.398637,45.418407 3.004357,44.346291 
	C3.429846,44.019020 3.874870,44.008171 4.651485,44.039993 
z"/>
<path fill="#1E3031" opacity="1.000000" stroke="none" 
	d="
M6.011726,37.112915 
	C5.836555,37.083805 5.661384,37.054699 5.221972,36.990524 
	C4.308828,35.870937 3.659924,34.786419 3.016950,33.364025 
	C3.229662,33.009281 3.436444,32.992405 4.274137,32.967178 
	C5.604270,33.637474 6.303492,34.316132 6.998404,35.207050 
	C6.994093,35.419315 6.960471,35.842602 6.882403,36.035110 
	C6.804336,36.227619 6.801291,36.643078 6.582080,36.723869 
	C6.362870,36.804665 6.011726,37.112915 6.011726,37.112915 
z"/>
<path fill="#747683" opacity="1.000000" stroke="none" 
	d="
M17.205242,43.745762 
	C16.264856,44.220047 15.528109,44.440571 14.527401,44.782539 
	C13.514267,43.832310 12.765095,42.760632 12.217587,41.348343 
	C12.599183,40.996887 12.779115,40.986046 13.328947,40.984016 
	C14.800971,40.660080 15.903093,40.327339 17.298149,40.121803 
	C18.391413,40.483921 19.191746,40.718838 20.033869,41.053616 
	C20.075661,41.153481 20.140770,41.359974 20.140501,41.642189 
	C20.072222,42.294155 20.004211,42.663906 19.936203,43.033661 
	C19.093763,43.186440 18.251324,43.339218 17.205242,43.745762 
z"/>
<path fill="#BDB1AB" opacity="1.000000" stroke="none" 
	d="
M19.960121,43.430672 
	C20.004211,42.663906 20.072222,42.294155 20.290817,41.579231 
	C20.441404,41.234055 20.762987,41.189724 20.762987,41.189724 
	C20.838209,41.610085 20.913429,42.030449 21.106449,42.750408 
	C21.212917,43.472275 21.201584,43.894539 21.140572,44.961540 
	C21.074068,46.053986 21.057245,46.501698 21.040422,46.949413 
	C21.040422,46.949413 20.567089,46.983669 20.330486,46.996414 
	C20.057270,45.948669 20.020655,44.888176 19.960121,43.430672 
z"/>
<path fill="#99806C" opacity="1.000000" stroke="none" 
	d="
M29.071281,41.127174 
	C28.823668,41.204208 28.468243,41.138065 28.288706,41.117302 
	C28.109169,41.096542 27.935617,40.986698 27.804531,40.727463 
	C27.506792,40.239273 27.285271,40.093639 27.008884,40.031322 
	C26.840456,40.027195 26.672026,40.023067 26.243313,40.011208 
	C25.983030,40.003479 25.953104,40.008881 26.069241,39.747688 
	C26.439646,38.783607 26.693914,38.080719 27.108143,37.200211 
	C27.268103,37.022587 27.690237,36.801571 28.023024,36.855995 
	C28.577816,36.945789 28.799820,36.981159 29.090851,37.290321 
	C29.476818,38.016415 29.793760,38.468716 30.110703,38.921021 
	C30.056639,39.382565 30.002575,39.844105 29.891491,40.649734 
	C29.662615,41.012596 29.490757,41.031372 29.071281,41.127174 
z"/>
<path fill="#575955" opacity="1.000000" stroke="none" 
	d="
M7.002714,34.994785 
	C6.303492,34.316132 5.604270,33.637474 4.584612,32.945896 
	C4.204372,32.201099 4.144567,31.469225 4.052261,30.370914 
	C4.062117,29.560802 4.104473,29.117126 4.135195,28.338711 
	C4.426129,27.209846 4.728697,26.415726 5.091160,25.293026 
	C5.844443,24.972193 6.537831,24.979937 7.577857,24.978413 
	C7.949049,25.718874 7.973602,26.468603 8.113122,27.862238 
	C8.500028,29.014172 8.771966,29.522200 9.039038,30.333406 
	C9.019648,31.039673 9.005126,31.442762 8.991983,32.241623 
	C8.999501,33.428768 9.005640,34.220135 8.676821,34.998676 
	C7.895480,34.988827 7.449097,34.991806 7.002714,34.994785 
z"/>
<path fill="#B7ACA4" opacity="1.000000" stroke="none" 
	d="
M4.991467,47.258774 
	C4.967946,46.579418 4.982962,46.128262 5.000825,45.338543 
	C5.325982,45.758797 5.648291,46.517612 5.972826,47.605431 
	C5.660036,47.785282 5.345021,47.636131 4.991467,47.258774 
z"/>
<path fill="#63635F" opacity="1.000000" stroke="none" 
	d="
M9.043905,30.030230 
	C8.771966,29.522200 8.500028,29.014172 8.123133,28.236753 
	C8.968274,27.197754 9.918372,26.428143 10.915119,25.347082 
	C11.395453,25.027880 11.829138,25.020124 12.775967,25.057800 
	C13.289109,25.103231 13.675023,25.126738 13.799176,25.439262 
	C14.246389,26.579472 14.569448,27.407156 14.887544,28.627745 
	C14.828614,30.065889 14.774650,31.111126 14.491489,31.970631 
	C13.343542,31.265072 12.424789,30.745245 11.097256,30.171225 
	C10.140284,30.088099 9.592094,30.059164 9.043905,30.030230 
z"/>
<path fill="#371D1D" opacity="1.000000" stroke="none" 
	d="
M15.574308,20.140583 
	C16.403084,19.654692 17.113482,19.437042 18.210772,19.211992 
	C18.715158,19.787706 18.832653,20.370819 18.918434,21.287334 
	C18.931803,22.064720 18.976885,22.508705 18.951859,23.287121 
	C18.931168,24.073170 18.980585,24.524786 19.006134,25.251282 
	C18.951059,25.707434 18.919851,25.888708 18.666435,26.065563 
	C18.444231,26.061142 18.001877,26.017534 17.980881,25.749645 
	C17.363281,25.176386 16.766678,24.871014 16.008087,24.280922 
	C15.584038,23.162458 15.321977,22.328711 15.059916,21.494965 
	C15.191920,21.132917 15.323925,20.770872 15.574308,20.140583 
z"/>
<path fill="#FBF5F3" opacity="1.000000" stroke="none" 
	d="
M14.559912,21.345905 
	C15.321977,22.328711 15.584038,23.162458 15.970112,24.566151 
	C16.278673,25.452061 16.463221,25.768026 16.768795,26.629099 
	C17.478418,28.480518 18.067015,29.786833 18.155499,31.077976 
	C16.734425,30.120150 15.813466,29.177494 14.892508,28.234838 
	C14.569448,27.407156 14.246389,26.579472 13.798314,25.120827 
	C13.552088,24.315615 13.430878,24.141363 13.309667,23.967112 
	C13.559747,23.043690 13.809827,22.120266 14.559912,21.345905 
z"/>
<path fill="#93928E" opacity="1.000000" stroke="none" 
	d="
M13.205521,24.124243 
	C13.430878,24.141363 13.552088,24.315615 13.674161,24.808302 
	C13.675023,25.126738 13.289109,25.103231 13.100865,25.057610 
	C12.979406,24.769449 13.042324,24.525911 13.205521,24.124243 
z"/>
<path fill="#CAB39B" opacity="1.000000" stroke="none" 
	d="
M37.822746,34.387417 
	C38.395363,34.495941 38.967979,34.604465 39.963047,34.839924 
	C39.862366,35.326397 39.339230,35.685940 38.510628,36.136162 
	C38.086765,36.096848 37.968365,35.966846 37.704823,35.530300 
	C37.559685,35.223759 37.412529,35.029797 37.537773,34.883690 
	C37.663017,34.737583 37.822746,34.387417 37.822746,34.387417 
z"/>
<path fill="#CCA991" opacity="1.000000" stroke="none" 
	d="
M30.176819,38.598900 
	C29.793760,38.468716 29.476818,38.016415 29.082378,37.003502 
	C28.961115,36.256866 28.917349,36.070839 28.997475,35.647133 
	C29.369015,34.940056 29.616663,34.470657 30.086842,33.814713 
	C30.393147,33.453625 30.476917,33.279095 30.739223,33.073166 
	C31.121798,32.886658 31.350088,32.830807 32.039257,32.913319 
	C32.766117,32.986622 33.056355,33.020828 33.346592,33.055038 
	C32.937008,33.838974 32.527420,34.622906 32.071072,35.740601 
	C31.430521,36.808498 30.836727,37.542641 30.176819,38.598900 
z"/>
<path fill="#E2D0BC" opacity="1.000000" stroke="none" 
	d="
M37.238239,27.894669 
	C36.523579,29.363207 35.808918,30.831747 35.025795,32.645271 
	C34.957336,32.990250 34.492661,33.006248 34.145859,32.751625 
	C33.526512,31.985268 33.253975,31.473532 33.019978,30.725918 
	C33.154594,30.127716 33.390038,29.946363 34.072540,29.819084 
	C35.332897,29.093014 36.285568,28.493841 37.238239,27.894669 
z"/>
<path fill="#FEF7E2" opacity="1.000000" stroke="none" 
	d="
M35.063324,33.259361 
	C35.874031,33.316818 36.677616,33.659218 37.651970,34.194519 
	C37.822746,34.387417 37.663017,34.737583 37.497395,34.914825 
	C37.331772,35.092064 37.158478,35.223415 37.158478,35.223415 
	C36.953442,35.302719 36.748409,35.382019 36.219307,35.524788 
	C35.615559,34.906937 35.335876,34.225620 35.063324,33.259361 
z"/>
<path fill="#E8C4AE" opacity="1.000000" stroke="none" 
	d="
M32.981434,30.961798 
	C33.253975,31.473532 33.526512,31.985268 33.913765,32.764950 
	C34.028477,33.032898 33.684372,33.062408 33.515480,33.058723 
	C33.056355,33.020828 32.766117,32.986622 32.157074,32.629993 
	C32.219322,31.858978 32.600380,31.410389 32.981434,30.961798 
z"/>
<path fill="#CAB39B" opacity="1.000000" stroke="none" 
	d="
M34.220154,37.775330 
	C34.031296,37.852795 33.641670,37.693398 33.094090,37.256065 
	C33.297218,37.164913 33.658298,37.351692 34.220154,37.775330 
z"/>
<path fill="#FDE1C6" opacity="1.000000" stroke="none" 
	d="
M37.210079,35.327660 
	C37.158478,35.223415 37.331772,35.092064 37.372150,35.060928 
	C37.412529,35.029797 37.559685,35.223759 37.526726,35.335747 
	C37.493771,35.447739 37.261681,35.431904 37.210079,35.327660 
z"/>
<path fill="#575955" opacity="1.000000" stroke="none" 
	d="
M42.091061,17.558878 
	C41.570103,19.438711 41.051914,21.001438 40.244061,22.489222 
	C39.637905,21.944254 39.321415,21.474234 38.909760,20.757385 
	C38.778000,20.338039 38.741398,20.165520 38.816139,19.827980 
	C39.057457,19.288370 39.187424,18.913778 39.501106,18.251339 
	C39.768646,17.753210 39.852470,17.542925 39.961266,16.944670 
	C39.991482,16.038588 39.996727,15.520477 40.118820,14.965906 
	C40.235672,14.929444 40.447063,14.805967 40.456322,14.816900 
	C40.465576,14.827832 40.475193,14.790858 40.475193,14.790858 
	C40.773006,15.101831 41.070824,15.412804 41.669094,15.849685 
	C42.010979,16.397654 42.052402,16.819714 42.091061,17.558878 
z"/>
<path fill="#FDECE2" opacity="1.000000" stroke="none" 
	d="
M34.450001,8.979181 
	C34.863140,8.962217 35.276283,8.945252 35.998505,8.903882 
	C36.770153,9.449006 37.232712,10.018536 37.882095,11.090014 
	C38.360565,12.069815 38.652222,12.547668 38.898731,13.274845 
	C38.811302,13.687713 38.769020,13.851255 38.480560,14.018234 
	C37.905640,14.020251 37.578381,13.997418 37.102844,13.749805 
	C36.838356,13.423196 36.723633,13.299953 36.596176,12.874943 
	C35.872292,11.375178 35.161144,10.177180 34.450001,8.979181 
z"/>
<path fill="#362D26" opacity="1.000000" stroke="none" 
	d="
M38.943878,13.025519 
	C38.652222,12.547668 38.360565,12.069815 38.076958,11.298529 
	C38.592018,11.016604 39.099033,11.028115 39.989449,11.074499 
	C40.237820,11.514562 40.102783,11.919751 39.667545,12.648266 
	C39.367340,12.971592 38.943878,13.025519 38.943878,13.025519 
z"/>
<path fill="#423D3A" opacity="1.000000" stroke="none" 
	d="
M38.898731,13.274845 
	C38.943878,13.025519 39.367340,12.971592 39.578491,12.955544 
	C39.850319,13.117001 39.911003,13.294508 40.097565,13.951921 
	C40.223442,14.431827 40.447063,14.805967 40.447063,14.805967 
	C40.447063,14.805967 40.235672,14.929444 39.936630,14.971330 
	C39.637592,15.013215 39.273190,15.011462 39.148914,14.755531 
	C38.925339,14.337999 38.826035,14.176399 38.726734,14.014799 
	C38.769020,13.851255 38.811302,13.687713 38.898731,13.274845 
z"/>
<path fill="#756D67" opacity="1.000000" stroke="none" 
	d="
M40.456322,14.816900 
	C40.447063,14.805967 40.223442,14.431827 40.194481,14.216093 
	C40.165520,14.000360 40.424080,14.000704 40.550285,13.999678 
	C40.676487,13.998652 40.655281,14.415614 40.565239,14.603236 
	C40.475193,14.790858 40.465576,14.827832 40.456322,14.816900 
z"/>
<path fill="#8D8E84" opacity="1.000000" stroke="none" 
	d="
M39.545982,28.088398 
	C39.545982,28.088398 39.501335,28.057001 39.472610,28.063290 
	C40.014809,27.880470 40.585732,27.691364 41.602470,27.576149 
	C41.766800,28.125797 41.485317,28.601559 40.963676,29.249517 
	C40.723522,29.421717 40.547096,29.328798 40.518414,28.954613 
	C40.175148,28.416416 39.860565,28.252407 39.545982,28.088398 
z"/>
<path fill="#FFEFE6" opacity="1.000000" stroke="none" 
	d="
M38.704792,19.993002 
	C38.741398,20.165520 38.778000,20.338039 38.824512,21.127480 
	C38.917503,22.489273 39.000580,23.234144 39.083652,23.979015 
	C39.041504,24.158558 38.999352,24.338100 39.001907,25.016973 
	C38.971172,25.680494 38.895725,25.844688 38.820282,26.008884 
	C38.422508,26.540636 38.024731,27.072386 37.432594,27.749401 
	C36.285568,28.493841 35.332897,29.093014 34.147560,29.516703 
	C34.060280,28.951969 34.205669,28.562717 34.584499,28.069077 
	C34.904633,27.489365 34.991325,27.014044 35.326019,26.279808 
	C35.676826,25.331371 35.779636,24.641850 36.038544,23.688391 
	C36.396416,22.643915 36.598190,21.863377 36.978134,20.823484 
	C37.245937,20.374470 37.335567,20.184807 37.638443,19.990730 
	C38.136086,19.984495 38.420456,19.986723 38.704792,19.993002 
z"/>
<path fill="#312A24" opacity="1.000000" stroke="none" 
	d="
M39.273682,23.861656 
	C39.000580,23.234144 38.917503,22.489273 38.919678,21.374308 
	C39.321415,21.474234 39.637905,21.944254 39.964554,22.718876 
	C39.870979,23.310965 39.700645,23.551239 39.273682,23.861656 
z"/>
<path fill="#554F4A" opacity="1.000000" stroke="none" 
	d="
M38.909843,26.215740 
	C38.895725,25.844688 38.971172,25.680494 39.134342,25.259850 
	C39.509609,25.090809 39.740276,25.257101 40.028679,25.685482 
	C40.030167,26.116293 39.917046,26.363901 39.551018,26.934355 
	C39.102043,27.013544 39.002476,26.735342 38.909843,26.215740 
z"/>
<path fill="#240A04" opacity="1.000000" stroke="none" 
	d="
M21.134777,7.480348 
	C22.002779,7.046494 22.688921,6.900919 23.499193,6.795299 
	C23.687012,6.999990 23.750704,7.164727 23.815666,7.595590 
	C23.857407,8.034772 23.897881,8.207829 23.901592,8.614519 
	C23.870558,9.163786 23.895411,9.477905 23.624479,9.899260 
	C22.265802,10.359973 21.222033,10.711937 20.178265,11.063900 
	C19.573862,11.032558 18.969458,11.001218 17.911663,10.927883 
	C18.623154,9.846803 19.788038,8.807714 21.134777,7.480348 
z"/>
<path fill="#E0B6AC" opacity="1.000000" stroke="none" 
	d="
M20.128563,11.437828 
	C21.222033,10.711937 22.265802,10.359973 23.940765,10.059369 
	C24.730379,10.285907 24.888800,10.461085 25.040791,10.882427 
	C24.973640,11.451469 24.922407,11.775846 24.577351,12.103598 
	C23.868959,12.127306 23.463877,12.149140 22.793526,12.279141 
	C22.370653,12.917868 22.213051,13.448427 21.715225,13.986265 
	C20.921347,13.996678 20.467691,13.999813 19.847239,13.994423 
	C19.680439,13.985896 19.348423,13.949240 19.348423,13.949240 
	C19.591902,13.236745 19.835382,12.524250 20.128563,11.437828 
z"/>
<path fill="#AE867D" opacity="1.000000" stroke="none" 
	d="
M18.950146,20.953934 
	C18.832653,20.370819 18.715158,19.787706 18.397234,18.979836 
	C18.358524,18.358381 18.520243,17.961687 18.847771,17.617041 
	C19.112961,17.911287 19.287569,18.071709 19.691666,18.388824 
	C20.167406,18.803890 20.488886,18.980482 21.041105,19.342283 
	C21.551510,19.801075 21.831175,20.074661 21.875492,20.597904 
	C20.743477,20.883018 19.846811,20.918476 18.950146,20.953934 
z"/>
<path fill="#322225" opacity="1.000000" stroke="none" 
	d="
M15.908413,13.390299 
	C16.000864,12.841405 16.075741,12.544108 16.510956,11.961008 
	C16.544476,12.330770 16.217657,12.986333 15.908413,13.390299 
z"/>
<path fill="#563137" opacity="1.000000" stroke="none" 
	d="
M19.483688,13.923409 
	C19.483688,13.923409 19.419470,13.955610 19.383945,13.952425 
	C19.348423,13.949240 19.680439,13.985896 19.729734,14.322157 
	C19.787151,14.890465 19.795273,15.122511 19.792337,15.485175 
	C19.781282,15.615793 19.796036,15.877549 19.558550,15.873678 
	C19.321064,15.869808 18.849241,15.814651 18.849241,15.814651 
	C18.849241,15.814651 18.812178,15.633152 19.004192,15.176912 
	C19.292036,14.454918 19.387861,14.189163 19.483688,13.923409 
z"/>
<path fill="#87605E" opacity="1.000000" stroke="none" 
	d="
M19.331318,13.700949 
	C19.387861,14.189163 19.292036,14.454918 19.084274,15.130371 
	C19.041210,14.852876 19.110081,14.165682 19.331318,13.700949 
z"/>
<path fill="#815155" opacity="1.000000" stroke="none" 
	d="
M18.875580,16.190689 
	C18.849241,15.814651 19.321064,15.869808 19.633940,15.923823 
	C19.946815,15.977839 20.062115,16.108730 20.042458,16.421379 
	C20.022053,17.152260 20.021305,17.570492 19.902843,18.038317 
	C19.785130,18.087912 19.537409,18.150354 19.537409,18.150354 
	C19.287569,18.071709 19.112961,17.911287 19.020760,17.489563 
	C18.985931,17.062269 18.943924,16.814499 18.875580,16.190689 
z"/>
<path fill="#958D84" opacity="1.000000" stroke="none" 
	d="
M39.548508,28.393471 
	C39.860565,28.252407 40.175148,28.416416 40.497673,28.857094 
	C40.187424,28.988688 39.869225,28.843615 39.548508,28.393471 
z"/>
<path fill="#472B15" opacity="1.000000" stroke="none" 
	d="
M34.150368,8.827791 
	C35.161144,10.177180 35.872292,11.375178 36.316841,13.233421 
	C35.577366,14.244968 35.104488,14.596272 34.526039,14.712593 
	C34.214516,14.094181 34.008564,13.710752 33.801376,13.022638 
	C33.498184,12.189295 33.196228,11.660635 32.681145,10.866255 
	C31.649294,10.320175 30.830568,10.039816 30.146519,9.598670 
	C30.731560,9.189942 31.181923,8.942000 31.775537,8.512699 
	C31.918791,8.331339 32.051975,7.888718 32.051975,7.888718 
	C32.651562,8.151278 33.251144,8.413838 34.150368,8.827791 
z"/>
<path fill="#DEC4AB" opacity="1.000000" stroke="none" 
	d="
M28.211853,5.866378 
	C28.211853,5.866378 28.593752,5.742414 28.784191,5.676179 
	C29.395952,5.743725 29.817274,5.877506 30.565937,6.059528 
	C30.893280,6.107769 30.964741,6.555433 30.792309,6.968048 
	C30.621935,7.699649 30.623997,8.018635 30.187225,8.255814 
	C29.166748,8.174612 28.585108,8.175217 28.024075,7.789981 
	C28.100407,6.891554 28.156130,6.378966 28.211853,5.866378 
z"/>
<path fill="#826147" opacity="1.000000" stroke="none" 
	d="
M30.626059,8.337621 
	C30.623997,8.018635 30.621935,7.699649 30.806646,7.194260 
	C31.311926,7.093452 31.601419,7.237400 31.956936,7.664209 
	C32.051975,7.888718 31.918791,8.331339 31.628616,8.409832 
	C31.095121,8.465825 30.857660,8.415590 30.626059,8.337621 
z"/>
<path fill="#B68E7A" opacity="1.000000" stroke="none" 
	d="
M27.789021,5.795916 
	C28.156130,6.378966 28.100407,6.891554 27.848019,8.047569 
	C26.667202,8.511536 25.683054,8.332074 24.727856,7.875326 
	C24.442671,7.508514 24.128534,7.418989 23.814398,7.329464 
	C23.750704,7.164727 23.687012,6.999990 23.827827,6.666862 
	C24.032333,6.498473 23.831615,6.131947 23.897417,5.933567 
	C25.097542,5.731943 26.231865,5.728699 27.789021,5.795916 
z"/>
<path fill="#8BA2A6" opacity="1.000000" stroke="none" 
	d="
M12.959047,40.975204 
	C12.779115,40.986046 12.599183,40.996887 12.148081,41.016796 
	C11.571388,41.048733 11.270555,41.020901 10.669186,40.546238 
	C10.116738,39.416088 9.869514,38.682056 9.880386,37.986969 
	C10.566981,38.243534 10.995480,38.461159 11.741266,38.860359 
	C12.358719,39.686356 12.658882,40.330780 12.959047,40.975204 
z"/>
<path fill="#F4ECE1" opacity="1.000000" stroke="none" 
	d="
M9.622289,37.948029 
	C9.869514,38.682056 10.116738,39.416088 10.441247,40.534363 
	C9.957541,40.947605 9.396550,40.976597 8.415942,41.008263 
	C7.728019,40.527317 7.459712,40.043697 7.295919,39.185188 
	C7.608679,38.533340 7.816925,38.256382 8.293142,37.990005 
	C8.914839,37.983067 9.268563,37.965546 9.622289,37.948029 
z"/>
<path fill="#6E6667" opacity="1.000000" stroke="none" 
	d="
M21.100044,41.132462 
	C20.762987,41.189724 20.441404,41.234055 20.291088,41.297012 
	C20.140770,41.359974 20.075661,41.153481 20.037205,40.726044 
	C19.999371,39.860622 19.999990,39.422638 20.374903,38.988922 
	C21.497694,38.997063 22.246193,39.000927 23.291451,39.026024 
	C24.055740,39.366310 24.523273,39.685368 24.998383,40.270012 
	C25.024750,40.711723 25.043541,40.887848 25.070721,41.287624 
	C25.079111,41.511276 25.109264,41.957878 25.109264,41.957878 
	C24.936903,41.973454 24.764544,41.989025 24.185299,41.776329 
	C23.452066,41.371098 23.125721,41.194138 22.799376,41.017174 
	C22.345284,41.036518 21.891193,41.055862 21.100044,41.132462 
z"/>
<path fill="#816C67" opacity="1.000000" stroke="none" 
	d="
M25.062332,41.063972 
	C25.043541,40.887848 25.024750,40.711723 25.239019,40.270500 
	C25.472080,40.005409 25.953104,40.008881 25.953104,40.008881 
	C25.953104,40.008881 25.983030,40.003479 25.990694,40.004066 
	C25.998495,40.173302 25.998632,40.341942 25.763403,40.768341 
	C25.528038,41.026104 25.062332,41.063972 25.062332,41.063972 
z"/>
<path fill="#816C67" opacity="1.000000" stroke="none" 
	d="
M27.088787,40.211357 
	C27.285271,40.093639 27.506792,40.239273 27.726772,40.660378 
	C27.515663,40.779247 27.311859,40.625534 27.088787,40.211357 
z"/>
<path fill="#635251" opacity="1.000000" stroke="none" 
	d="
M22.963554,41.243095 
	C23.125721,41.194138 23.452066,41.371098 23.926056,41.789848 
	C23.758379,41.844090 23.443054,41.656551 22.963554,41.243095 
z"/>
<path fill="#99806C" opacity="1.000000" stroke="none" 
	d="
M25.070721,41.287624 
	C25.062332,41.063972 25.528038,41.026104 25.761520,41.021297 
	C25.887350,41.299305 25.717110,41.537323 25.296772,41.844215 
	C25.109264,41.957878 25.079111,41.511276 25.070721,41.287624 
z"/>
<path fill="#99806C" opacity="1.000000" stroke="none" 
	d="
M27.366081,42.187340 
	C27.639893,42.352230 27.591211,42.567333 27.145716,42.765015 
	C27.028008,42.607044 27.126238,42.437031 27.366081,42.187340 
z"/>
<path fill="#928281" opacity="1.000000" stroke="none" 
	d="
M21.269707,46.987812 
	C21.057245,46.501698 21.074068,46.053986 21.166840,45.278137 
	C21.485666,45.450039 21.728544,45.950069 21.967680,46.738178 
	C21.963940,47.026257 21.498989,47.026211 21.269707,46.987812 
z"/>
<path fill="#F6F7F1" opacity="1.000000" stroke="none" 
	d="
M8.025169,37.979424 
	C7.816925,38.256382 7.608679,38.533340 7.168964,38.938118 
	C6.646656,38.605198 6.355816,38.144459 6.038352,37.398315 
	C6.011726,37.112915 6.362870,36.804665 6.854527,36.875530 
	C7.547099,37.000416 7.748015,37.054432 7.968637,37.325989 
	C7.988344,37.543533 8.025169,37.979424 8.025169,37.979424 
z"/>
<path fill="#283639" opacity="1.000000" stroke="none" 
	d="
M6.998404,35.207050 
	C7.449097,34.991806 7.895480,34.988827 8.734745,35.069771 
	C9.127627,35.153694 9.238869,35.299515 9.183081,35.467842 
	C9.127293,35.636166 8.953730,35.945454 8.620644,35.941444 
	C7.845194,35.905827 7.402833,35.874214 6.960471,35.842602 
	C6.960471,35.842602 6.994093,35.419315 6.998404,35.207050 
z"/>
<path fill="#7C98A2" opacity="1.000000" stroke="none" 
	d="
M6.882403,36.035110 
	C7.402833,35.874214 7.845194,35.905827 8.689564,36.021324 
	C9.091572,36.105209 9.230257,36.264240 9.134451,36.426403 
	C9.038646,36.588566 8.959400,36.956837 8.700874,36.955360 
	C8.277876,37.005405 8.113403,37.056927 7.948930,37.108448 
	C7.748015,37.054432 7.547099,37.000416 7.073737,36.794739 
	C6.801291,36.643078 6.804336,36.227619 6.882403,36.035110 
z"/>
<path fill="#697F8F" opacity="1.000000" stroke="none" 
	d="
M13.328947,40.984016 
	C12.658882,40.330780 12.358719,39.686356 11.788036,38.643539 
	C11.504287,37.941746 11.512180,37.638897 11.870983,37.170246 
	C12.845613,36.706554 13.490458,36.409210 14.228290,36.291931 
	C14.488976,36.701134 14.709399,36.854637 15.303267,36.976540 
	C16.051506,37.073208 16.479023,37.125839 16.907894,37.530827 
	C16.941238,38.586987 16.973228,39.290791 17.005217,39.994595 
	C15.903093,40.327339 14.800971,40.660080 13.328947,40.984016 
z"/>
<path fill="#605F61" opacity="1.000000" stroke="none" 
	d="
M17.298149,40.121803 
	C16.973228,39.290791 16.941238,38.586987 16.944878,37.221611 
	C16.997066,36.354588 17.013626,36.149128 17.269499,35.961182 
	C17.508810,35.978687 17.987700,36.009861 18.036736,36.327690 
	C18.724028,37.098953 19.362286,37.552383 20.001822,38.250526 
	C20.003099,38.495232 20.000610,38.984650 20.000610,38.984650 
	C19.999990,39.422638 19.999371,39.860622 19.995415,40.626183 
	C19.191746,40.718838 18.391413,40.483921 17.298149,40.121803 
z"/>
<path fill="#866F66" opacity="1.000000" stroke="none" 
	d="
M26.069241,39.747688 
	C25.953104,40.008881 25.472080,40.005409 25.231443,40.004921 
	C24.523273,39.685368 24.055740,39.366310 23.258545,38.711205 
	C22.615292,37.598381 22.301702,36.821602 21.994045,35.740982 
	C22.007025,35.234673 22.014074,35.032196 22.307714,34.843498 
	C22.785265,34.869320 22.976225,34.881367 23.303902,35.146118 
	C23.965673,35.583122 24.490728,35.767418 25.185772,36.227123 
	C25.937807,36.570557 26.519850,36.638580 27.062874,36.874275 
	C27.023857,37.041950 26.948181,37.377834 26.948181,37.377834 
	C26.693914,38.080719 26.439646,38.783607 26.069241,39.747688 
z"/>
<path fill="#2E0C07" opacity="1.000000" stroke="none" 
	d="
M29.864311,34.001263 
	C29.616663,34.470657 29.369015,34.940056 28.743763,35.713005 
	C28.140852,36.278229 27.915545,36.539902 27.690237,36.801571 
	C27.690237,36.801571 27.268103,37.022587 27.108143,37.200211 
	C26.948181,37.377834 27.023857,37.041950 27.034101,36.519814 
	C27.004272,35.043247 26.964199,34.088814 26.949362,33.097507 
	C26.974596,33.060635 27.028946,32.989708 27.297718,33.134834 
	C28.332430,33.520397 29.098372,33.760830 29.864311,34.001263 
z"/>
<path fill="#8A6E53" opacity="1.000000" stroke="none" 
	d="
M28.023024,36.855995 
	C27.915545,36.539902 28.140852,36.278229 28.619873,35.950687 
	C28.917349,36.070839 28.961115,36.256866 29.013351,36.729710 
	C28.799820,36.981159 28.577816,36.945789 28.023024,36.855995 
z"/>
<path fill="#2A2E2F" opacity="1.000000" stroke="none" 
	d="
M9.069702,35.082600 
	C9.005640,34.220135 8.999501,33.428768 9.284798,32.262295 
	C9.966806,31.905733 10.357382,31.924273 10.863091,31.956604 
	C10.978224,31.970392 11.196932,32.047531 11.154639,32.338005 
	C11.411283,33.095222 11.710219,33.561966 11.973557,34.207150 
	C11.937960,34.385593 11.866276,34.742386 11.538194,34.815834 
	C10.553031,35.026028 9.895950,35.162773 9.238869,35.299515 
	C9.238869,35.299515 9.127627,35.153694 9.069702,35.082600 
z"/>
<path fill="#6D6D68" opacity="1.000000" stroke="none" 
	d="
M10.747956,31.942814 
	C10.357382,31.924273 9.966806,31.905733 9.283418,31.866524 
	C9.005126,31.442762 9.019648,31.039673 9.039038,30.333406 
	C9.592094,30.059164 10.140284,30.088099 10.924680,30.435301 
	C11.023243,31.149984 10.885599,31.546398 10.747956,31.942814 
z"/>
<path fill="#817774" opacity="1.000000" stroke="none" 
	d="
M22.021124,34.829720 
	C22.014074,35.032196 22.007025,35.234673 21.672577,35.736862 
	C20.916254,36.039207 20.487329,36.041840 19.713291,36.028629 
	C18.908018,36.011814 18.447859,36.010838 17.987700,36.009861 
	C17.987700,36.009861 17.508810,35.978687 17.225136,35.654316 
	C16.555847,34.598949 16.170235,33.867950 15.719799,32.889641 
	C15.369187,32.473286 15.083397,32.304241 14.777924,32.138145 
	C14.758239,32.141090 14.720684,32.156364 14.720684,32.156364 
	C14.774650,31.111126 14.828614,30.065889 14.887544,28.627745 
	C15.813466,29.177494 16.734425,30.120150 18.115921,31.050547 
	C18.789700,30.828276 19.002943,30.618265 19.340305,30.842609 
	C20.316656,32.461216 21.168890,33.645470 22.021124,34.829720 
z"/>
<path fill="#0F0E0C" opacity="1.000000" stroke="none" 
	d="
M10.863091,31.956602 
	C10.885599,31.546398 11.023243,31.149984 11.333462,30.489494 
	C12.424789,30.745245 13.343542,31.265072 14.491489,31.970631 
	C14.720684,32.156364 14.758239,32.141090 14.759680,32.333199 
	C14.761122,32.525303 14.711129,32.915096 14.517200,33.017075 
	C14.082205,33.299290 13.907837,33.529949 13.588846,33.866871 
	C13.377524,33.922714 12.982523,34.110565 13.018291,33.994186 
	C13.054059,33.877808 13.032729,33.635239 12.871210,33.447784 
	C12.205439,32.856068 11.701185,32.451797 11.196932,32.047531 
	C11.196932,32.047531 10.978224,31.970392 10.863091,31.956602 
z"/>
<path fill="#070604" opacity="1.000000" stroke="none" 
	d="
M19.216188,30.408255 
	C19.002943,30.618265 18.789700,30.828276 18.616035,31.065716 
	C18.067015,29.786833 17.478418,28.480518 17.107876,26.623615 
	C17.551247,26.054527 17.776562,26.036030 18.001877,26.017534 
	C18.001877,26.017534 18.444231,26.061142 18.751566,26.276386 
	C19.207100,26.773325 19.428820,26.973669 19.805155,27.433950 
	C20.151669,28.423187 20.417088,29.071133 20.518856,29.759693 
	C19.975533,30.002956 19.595860,30.205605 19.216188,30.408255 
z"/>
<path fill="#FDC2BC" opacity="1.000000" stroke="none" 
	d="
M18.918434,21.287334 
	C19.846811,20.918476 20.743477,20.883018 22.192181,20.549553 
	C23.161758,20.171928 23.579300,20.092310 24.002544,20.210478 
	C24.008249,20.408264 24.237671,20.730726 24.176903,21.116674 
	C24.054464,22.275635 23.992794,23.048649 23.651289,23.992466 
	C22.950951,24.281595 22.530447,24.399916 21.853086,24.282795 
	C21.365482,24.020605 21.134735,23.993860 20.865368,23.871883 
	C20.826750,23.776651 20.504868,23.805868 20.164019,23.540646 
	C19.556101,23.167847 19.289034,23.060268 19.021965,22.952690 
	C18.976885,22.508705 18.931803,22.064720 18.918434,21.287334 
z"/>
<path fill="#633A40" opacity="1.000000" stroke="none" 
	d="
M19.724062,27.092659 
	C19.428820,26.973669 19.207100,26.773325 18.973770,26.280807 
	C18.919851,25.888708 18.951059,25.707434 19.384773,25.262184 
	C20.540070,25.081188 21.292858,25.164169 22.044128,25.528397 
	C22.045340,26.190378 22.048067,26.571114 21.663635,26.971151 
	C20.759003,27.024523 20.241533,27.058592 19.724062,27.092659 
z"/>
<path fill="#1E1F21" opacity="1.000000" stroke="none" 
	d="
M17.980881,25.749645 
	C17.776562,26.036030 17.551247,26.054527 16.986851,26.078506 
	C16.463221,25.768026 16.278673,25.452061 16.132101,24.850868 
	C16.766678,24.871014 17.363281,25.176386 17.980881,25.749645 
z"/>
<path fill="#834348" opacity="1.000000" stroke="none" 
	d="
M22.045647,25.247150 
	C21.292858,25.164169 20.540070,25.081188 19.408642,24.987307 
	C18.980585,24.524786 18.931168,24.073170 18.951859,23.287121 
	C19.289034,23.060268 19.556101,23.167847 20.234325,23.536942 
	C20.645481,23.798456 20.903988,23.967115 20.903988,23.967115 
	C21.134735,23.993860 21.365482,24.020605 21.864773,24.466862 
	C22.133318,24.886374 22.045647,25.247149 22.045647,25.247150 
z"/>
<path fill="#532710" opacity="1.000000" stroke="none" 
	d="
M34.351059,28.173466 
	C34.205669,28.562717 34.060280,28.951969 33.839874,29.643604 
	C33.390038,29.946363 33.154594,30.127716 33.019978,30.725918 
	C32.600380,31.410389 32.219322,31.858978 31.720451,32.590893 
	C31.350088,32.830807 31.121798,32.886658 30.460629,33.034523 
	C29.669765,32.864891 29.336035,32.702503 29.173244,32.258099 
	C29.944559,31.067308 30.544935,30.158533 31.414188,29.087667 
	C31.874264,28.553633 32.065468,28.181688 32.476032,27.672136 
	C33.021301,27.277967 33.347202,27.021404 33.673103,26.764839 
	C33.899086,27.234383 34.125072,27.703924 34.351059,28.173466 
z"/>
<path fill="#3D1208" opacity="1.000000" stroke="none" 
	d="
M29.002304,32.540115 
	C29.336035,32.702503 29.669765,32.864891 30.282091,33.065922 
	C30.476917,33.279095 30.393147,33.453625 30.086843,33.814713 
	C29.098372,33.760830 28.332430,33.520397 27.263914,33.016663 
	C26.961340,32.753365 26.976067,32.508125 27.313400,32.536133 
	C28.101255,32.556133 28.551781,32.548122 29.002304,32.540115 
z"/>
<path fill="#FEF7E9" opacity="1.000000" stroke="none" 
	d="
M38.816139,19.827980 
	C38.420456,19.986723 38.136086,19.984495 37.587391,19.745451 
	C37.241531,19.358822 37.159966,19.213060 37.134567,18.683201 
	C37.133354,17.533073 37.075977,16.767048 37.123714,15.670064 
	C37.236755,14.877129 37.244686,14.415150 37.252613,13.953171 
	C37.578381,13.997418 37.905640,14.020251 38.480560,14.018234 
	C38.826035,14.176399 38.925339,14.337999 39.068817,15.066927 
	C39.142021,16.060909 39.171043,16.487564 39.107601,17.185173 
	C39.115887,17.817144 39.216637,18.178165 39.317383,18.539186 
	C39.187424,18.913778 39.057457,19.288370 38.816139,19.827980 
z"/>
<path fill="#383532" opacity="1.000000" stroke="none" 
	d="
M39.200066,16.914221 
	C39.171043,16.487564 39.142021,16.060909 39.193092,15.322857 
	C39.273190,15.011462 39.637592,15.013215 39.819778,15.007792 
	C39.996727,15.520477 39.991482,16.038588 39.797527,16.803043 
	C39.608814,17.049389 39.200069,16.914221 39.200066,16.914221 
z"/>
<path fill="#777873" opacity="1.000000" stroke="none" 
	d="
M39.107605,17.185173 
	C39.200069,16.914221 39.608814,17.049389 39.772552,17.191015 
	C39.852470,17.542925 39.768646,17.753210 39.501102,18.251339 
	C39.216637,18.178165 39.115887,17.817144 39.107605,17.185173 
z"/>
<path fill="#3B1D06" opacity="1.000000" stroke="none" 
	d="
M37.102844,13.749805 
	C37.244686,14.415150 37.236755,14.877129 36.730186,15.668115 
	C35.706635,15.987750 35.181725,15.978378 34.534630,15.716507 
	C34.485500,15.291864 34.558552,15.119720 34.631607,14.947576 
	C35.104488,14.596272 35.577366,14.244968 36.329582,13.535187 
	C36.723633,13.299953 36.838356,13.423196 37.102844,13.749805 
z"/>
<path fill="#BD7E65" opacity="1.000000" stroke="none" 
	d="
M34.584499,28.069077 
	C34.125072,27.703924 33.899086,27.234383 33.673103,26.764839 
	C33.347202,27.021404 33.021301,27.277967 32.221764,27.708809 
	C31.578045,27.881447 31.407955,27.879807 30.886871,27.799709 
	C30.296974,27.700880 30.058071,27.680510 29.834160,27.406090 
	C29.903027,26.816231 29.956903,26.480427 30.032570,25.817764 
	C31.333347,25.140574 32.612335,24.790239 34.114712,25.006046 
	C34.584740,25.894367 34.831383,26.216543 35.078022,26.538721 
	C34.991325,27.014044 34.904633,27.489365 34.584499,28.069077 
z"/>
<path fill="#451703" opacity="1.000000" stroke="none" 
	d="
M36.799965,21.082838 
	C36.598190,21.863377 36.396416,22.643915 35.706619,23.677376 
	C35.012142,24.010254 34.805683,24.090210 34.648994,23.750973 
	C34.813641,22.217636 34.928513,21.103495 35.333450,20.000423 
	C35.816383,20.027412 36.009247,20.043327 36.270798,20.251274 
	C36.382969,20.735714 36.536461,20.948891 36.799965,21.082838 
z"/>
<path fill="#86483F" opacity="1.000000" stroke="none" 
	d="
M34.599224,24.170166 
	C34.805683,24.090210 35.012142,24.010254 35.550522,23.941313 
	C35.779636,24.641850 35.676826,25.331371 35.326019,26.279808 
	C34.831383,26.216543 34.584740,25.894367 34.273575,24.889473 
	C34.209053,24.206758 34.599224,24.170166 34.599224,24.170166 
z"/>
<path fill="#8F735B" opacity="1.000000" stroke="none" 
	d="
M36.978138,20.823484 
	C36.536461,20.948891 36.382969,20.735714 36.402649,20.068562 
	C36.569569,19.386766 36.773766,19.177927 37.078400,19.067301 
	C37.159966,19.213060 37.241531,19.358822 37.374146,19.749866 
	C37.335567,20.184807 37.245937,20.374470 36.978138,20.823484 
z"/>
<path fill="#55250D" opacity="1.000000" stroke="none" 
	d="
M24.698904,8.152614 
	C25.683054,8.332074 26.667202,8.511536 27.827408,8.433409 
	C28.585108,8.175217 29.166748,8.174612 30.187225,8.255814 
	C30.857660,8.415590 31.095121,8.465825 31.485363,8.591192 
	C31.181923,8.942000 30.731560,9.189942 29.741344,9.713291 
	C27.816734,10.204553 26.431976,10.420408 25.047220,10.636264 
	C24.888800,10.461085 24.730379,10.285907 24.255672,9.950619 
	C23.895411,9.477905 23.870558,9.163786 24.082930,8.526278 
	C24.301029,8.204403 24.698904,8.152614 24.698904,8.152614 
z"/>
<path fill="#5A3E34" opacity="1.000000" stroke="none" 
	d="
M24.727856,7.875326 
	C24.698904,8.152614 24.301029,8.204403 24.119692,8.292645 
	C23.897881,8.207829 23.857407,8.034772 23.815666,7.595590 
	C24.128534,7.418989 24.442671,7.508514 24.727856,7.875326 
z"/>
<path fill="#FED5B7" opacity="1.000000" stroke="none" 
	d="
M25.040791,10.882427 
	C26.431976,10.420408 27.816734,10.204553 29.606667,9.874077 
	C30.830568,10.039816 31.649294,10.320175 32.698128,10.850493 
	C32.928238,11.100451 32.956928,11.137538 32.668938,11.225300 
	C31.582678,12.195876 30.784410,13.078691 29.984596,14.212230 
	C29.986740,14.630070 29.990429,14.797183 29.643257,14.986685 
	C28.600178,15.061343 27.907957,15.113611 26.756754,15.251340 
	C26.028536,15.492964 25.759298,15.649128 25.429033,15.726549 
	C25.368004,15.647806 25.353212,15.449106 25.550241,15.115725 
	C25.458401,13.888802 25.169529,12.995262 24.880659,12.101722 
	C24.922407,11.775846 24.973640,11.451469 25.040791,10.882427 
z"/>
<path fill="#D5967E" opacity="1.000000" stroke="none" 
	d="
M24.577351,12.103598 
	C25.169529,12.995262 25.458401,13.888802 25.280491,14.962265 
	C24.201294,15.062478 23.588879,14.982768 23.005947,14.649773 
	C23.033403,14.226503 23.031380,14.056520 23.027987,13.600177 
	C23.037342,12.932869 23.048069,12.551922 23.058796,12.170975 
	C23.463877,12.149140 23.868959,12.127306 24.577351,12.103598 
z"/>
<path fill="#E9AF9C" opacity="1.000000" stroke="none" 
	d="
M23.029358,13.886537 
	C23.031380,14.056520 23.033403,14.226503 22.785370,14.733925 
	C22.100403,15.250463 21.665495,15.429564 21.010267,15.489765 
	C20.461096,15.365429 20.132244,15.359993 19.803392,15.354557 
	C19.795273,15.122511 19.787151,14.890465 19.896534,14.330684 
	C20.467691,13.999813 20.921347,13.996678 21.959328,13.973113 
	C22.543653,13.952682 23.029358,13.886537 23.029358,13.886537 
z"/>
<path fill="#D19F92" opacity="1.000000" stroke="none" 
	d="
M23.027987,13.600177 
	C23.029358,13.886537 22.543653,13.952682 22.299551,13.965835 
	C22.213051,13.448427 22.370653,12.917868 22.793526,12.279140 
	C23.048069,12.551922 23.037342,12.932869 23.027987,13.600177 
z"/>
<path fill="#451D1A" opacity="1.000000" stroke="none" 
	d="
M23.996840,20.012691 
	C23.579300,20.092310 23.161758,20.171928 22.427530,20.299896 
	C21.831175,20.074661 21.551510,19.801075 21.097752,19.050869 
	C20.954828,18.379431 20.985996,18.184610 21.367451,17.997250 
	C22.477438,18.674036 23.237139,19.343365 23.996840,20.012691 
z"/>
<path fill="#764544" opacity="1.000000" stroke="none" 
	d="
M21.017166,17.989792 
	C20.985996,18.184610 20.954828,18.379431 20.867016,18.865662 
	C20.488886,18.980482 20.167406,18.803890 19.691666,18.388824 
	C19.537409,18.150354 19.785130,18.087912 20.151863,18.038984 
	C20.518597,17.990057 21.017166,17.989792 21.017166,17.989792 
z"/>
<path fill="#87605E" opacity="1.000000" stroke="none" 
	d="
M19.792337,15.485175 
	C20.132244,15.359993 20.461096,15.365429 20.734547,15.653720 
	C20.473469,15.993958 20.267792,16.051344 20.062115,16.108730 
	C20.062115,16.108730 19.946815,15.977839 19.871426,15.927694 
	C19.796036,15.877549 19.781282,15.615793 19.792337,15.485175 
z"/>
<path fill="#672A21" opacity="1.000000" stroke="none" 
	d="
M20.042458,16.421379 
	C20.267792,16.051344 20.473469,15.993958 20.954866,15.772621 
	C21.665495,15.429564 22.100403,15.250463 22.755886,14.987209 
	C23.588879,14.982768 24.201294,15.062478 25.083462,15.295647 
	C25.353212,15.449106 25.368004,15.647806 25.452030,16.025383 
	C25.681904,16.779978 25.827755,17.156992 25.954556,17.543964 
	C25.935505,17.553919 25.901003,17.523960 25.858980,17.949505 
	C25.708889,19.220533 25.600821,20.066017 25.347740,20.700743 
	C24.881042,20.570232 24.559357,20.650480 24.237671,20.730726 
	C24.237671,20.730726 24.008249,20.408264 24.002544,20.210478 
	C23.237139,19.343365 22.477438,18.674036 21.367451,17.997250 
	C21.017166,17.989792 20.518597,17.990057 20.269577,17.989389 
	C20.021305,17.570492 20.022053,17.152260 20.042458,16.421379 
z"/>
<path fill="#FFF3D9" opacity="1.000000" stroke="none" 
	d="
M29.994116,14.964295 
	C29.990429,14.797183 29.986740,14.630070 30.323744,14.194300 
	C31.428600,12.996275 32.192764,12.066907 32.956928,11.137539 
	C32.956928,11.137538 32.928238,11.100451 32.911255,11.116213 
	C33.196228,11.660635 33.498184,12.189295 33.668221,13.263422 
	C33.358822,14.510134 33.181343,15.211378 32.750259,15.914759 
	C32.330711,15.949868 32.164772,15.982843 31.757942,15.865742 
	C31.009407,15.465208 30.501760,15.214752 29.994116,14.964295 
z"/>
<path fill="#FFD9BC" opacity="1.000000" stroke="none" 
	d="
M33.003864,15.912622 
	C33.181343,15.211378 33.358822,14.510134 33.669456,13.568106 
	C34.008564,13.710752 34.214516,14.094181 34.526039,14.712593 
	C34.558552,15.119720 34.485500,15.291864 34.418976,15.885859 
	C34.425510,16.307709 34.494003,16.712456 34.272324,16.802444 
	C33.808243,17.112831 33.637943,17.379297 33.495453,17.750938 
	C33.451153,17.810047 33.459194,17.957561 33.406898,17.691521 
	C33.243225,17.283117 33.131844,17.140757 33.061714,16.726257 
	C33.069931,16.273621 33.036896,16.093121 33.003864,15.912622 
z"/>
<path fill="#E8D7D0" opacity="1.000000" stroke="none" 
	d="
M11.541199,37.336594 
	C11.512180,37.638897 11.504287,37.941746 11.470747,38.461964 
	C10.995480,38.461159 10.566981,38.243534 9.880386,37.986969 
	C9.268563,37.965546 8.914839,37.983067 8.293141,37.990005 
	C8.025169,37.979424 7.988344,37.543533 7.968637,37.325989 
	C8.113403,37.056927 8.277876,37.005405 8.992262,37.021172 
	C10.112608,37.140862 10.683040,37.193260 11.311857,37.311253 
	C11.370243,37.376846 11.541199,37.336594 11.541199,37.336594 
z"/>
<path fill="#605753" opacity="1.000000" stroke="none" 
	d="
M20.058405,36.044472 
	C20.487329,36.041840 20.916254,36.039207 21.666645,36.040703 
	C22.301702,36.821602 22.615292,37.598381 22.961784,38.689980 
	C22.246193,39.000927 21.497694,38.997063 20.374905,38.988922 
	C20.000610,38.984650 20.003099,38.495232 20.006716,37.923153 
	C20.026356,36.915539 20.042381,36.480007 20.058405,36.044472 
z"/>
<path fill="#7C98A2" opacity="1.000000" stroke="none" 
	d="
M9.183081,35.467842 
	C9.895950,35.162773 10.553031,35.026028 11.798812,34.888901 
	C12.567553,34.890331 12.747593,34.892139 13.181458,35.042633 
	C13.684873,35.492508 13.934464,35.793701 14.171915,36.104492 
	C14.159777,36.114090 14.135304,36.111870 14.135303,36.111870 
	C13.490458,36.409210 12.845613,36.706554 11.870983,37.170246 
	C11.541199,37.336594 11.370243,37.376846 11.373065,37.027023 
	C10.660677,36.539547 9.945467,36.401894 9.230257,36.264240 
	C9.230257,36.264240 9.091572,36.105209 9.022651,36.025330 
	C8.953730,35.945454 9.127293,35.636166 9.183081,35.467842 
z"/>
<path fill="#C0BCB1" opacity="1.000000" stroke="none" 
	d="
M9.134451,36.426403 
	C9.945467,36.401894 10.660677,36.539547 11.314679,36.961433 
	C10.683040,37.193260 10.112608,37.140862 9.250788,37.022648 
	C8.959400,36.956837 9.038646,36.588566 9.134451,36.426403 
z"/>
<path fill="#535F68" opacity="1.000000" stroke="none" 
	d="
M13.800168,33.811028 
	C13.907837,33.529949 14.082205,33.299290 14.787279,33.065208 
	C15.429065,33.053226 15.606843,33.095089 15.784620,33.136955 
	C16.170235,33.867950 16.555847,34.598949 16.985825,35.636810 
	C17.013626,36.149128 16.997066,36.354588 16.943523,36.869255 
	C16.479023,37.125839 16.051506,37.073208 15.307339,36.770741 
	C14.990688,36.520905 15.004900,36.107849 14.980064,35.762695 
	C14.570208,34.882038 14.185187,34.346531 13.800168,33.811028 
z"/>
<path fill="#4F5662" opacity="1.000000" stroke="none" 
	d="
M15.004900,36.107849 
	C15.004900,36.107849 14.990688,36.520905 14.986616,36.726700 
	C14.709399,36.854637 14.488976,36.701134 14.228291,36.291931 
	C14.135304,36.111870 14.159777,36.114090 14.376275,36.102142 
	C14.592773,36.090191 15.004900,36.107849 15.004900,36.107849 
z"/>
<path fill="#74706C" opacity="1.000000" stroke="none" 
	d="
M19.713291,36.028629 
	C20.042381,36.480007 20.026356,36.915539 20.005438,37.678444 
	C19.362286,37.552383 18.724028,37.098953 18.036736,36.327690 
	C18.447859,36.010838 18.908018,36.011814 19.713291,36.028629 
z"/>
<path fill="#20040A" opacity="1.000000" stroke="none" 
	d="
M19.340305,30.842609 
	C19.595860,30.205605 19.975533,30.002956 20.713459,29.851210 
	C21.330214,30.056271 21.609938,30.137640 22.148045,30.266144 
	C22.554775,30.436834 22.724348,30.487600 22.822493,30.629875 
	C22.751066,30.721386 22.853800,30.929592 22.858946,31.284317 
	C22.886562,31.874483 22.909031,32.109924 23.081051,32.557564 
	C23.209465,33.477654 23.188326,34.185532 23.167187,34.893414 
	C22.976225,34.881367 22.785265,34.869320 22.307714,34.843498 
	C21.168890,33.645470 20.316656,32.461216 19.340305,30.842609 
z"/>
<path fill="#2E0C07" opacity="1.000000" stroke="none" 
	d="
M23.303904,35.146118 
	C23.188326,34.185532 23.209465,33.477654 23.341793,32.540874 
	C23.610107,32.237091 23.767237,32.162201 24.294003,32.206276 
	C25.434448,32.386204 26.205257,32.447163 26.976067,32.508125 
	C26.976067,32.508125 26.961340,32.753365 26.995144,32.871536 
	C27.028946,32.989708 26.974596,33.060635 26.700886,33.238731 
	C25.956711,34.261791 25.486246,35.106754 25.015781,35.951717 
	C24.490728,35.767418 23.965673,35.583122 23.303904,35.146118 
z"/>
<path fill="#3D1208" opacity="1.000000" stroke="none" 
	d="
M25.185774,36.227123 
	C25.486246,35.106754 25.956711,34.261791 26.675652,33.275604 
	C26.964199,34.088814 27.004272,35.043247 27.073118,36.352142 
	C26.519850,36.638580 25.937807,36.570557 25.185774,36.227123 
z"/>
<path fill="#01040A" opacity="1.000000" stroke="none" 
	d="
M11.154639,32.338005 
	C11.701185,32.451797 12.205439,32.856068 12.627909,33.579418 
	C12.367135,33.941902 12.188146,33.985306 12.009155,34.028706 
	C11.710219,33.561966 11.411283,33.095222 11.154639,32.338005 
z"/>
<path fill="#4F5662" opacity="1.000000" stroke="none" 
	d="
M11.973558,34.207150 
	C12.188146,33.985306 12.367135,33.941902 12.789427,33.766869 
	C13.032729,33.635239 13.054059,33.877808 13.011077,34.190414 
	C12.968095,34.503025 12.927634,34.893948 12.927634,34.893948 
	C12.747593,34.892139 12.567553,34.890331 12.126894,34.815453 
	C11.866276,34.742386 11.937960,34.385593 11.973558,34.207150 
z"/>
<path fill="#5E7784" opacity="1.000000" stroke="none" 
	d="
M15.719799,32.889641 
	C15.606843,33.095089 15.429065,33.053226 14.981208,32.963230 
	C14.711129,32.915096 14.761122,32.525303 14.779365,32.330254 
	C15.083397,32.304241 15.369187,32.473286 15.719799,32.889641 
z"/>
<path fill="#5E7784" opacity="1.000000" stroke="none" 
	d="
M13.181458,35.042633 
	C12.927634,34.893948 12.968095,34.503025 12.975309,34.306793 
	C12.982523,34.110565 13.377524,33.922714 13.588846,33.866871 
	C14.185187,34.346531 14.570208,34.882038 14.980064,35.762695 
	C15.004900,36.107849 14.592773,36.090191 14.388414,36.092541 
	C13.934464,35.793701 13.684873,35.492508 13.181458,35.042633 
z"/>
<path fill="#764544" opacity="1.000000" stroke="none" 
	d="
M21.910889,30.146219 
	C21.609938,30.137640 21.330214,30.056271 20.877110,29.810595 
	C20.417088,29.071133 20.151669,28.423187 19.805155,27.433950 
	C20.241533,27.058592 20.759003,27.024523 21.670750,27.155247 
	C22.065025,27.320036 22.045822,27.686800 22.016344,28.099209 
	C21.961540,29.056486 21.936214,29.601353 21.910889,30.146219 
z"/>
<path fill="#612A24" opacity="1.000000" stroke="none" 
	d="
M22.045822,27.686800 
	C22.045822,27.686800 22.065025,27.320036 22.057911,27.135941 
	C22.048067,26.571114 22.045340,26.190378 22.044128,25.528397 
	C22.045647,25.247149 22.133318,24.886374 22.121632,24.702305 
	C22.530447,24.399916 22.950951,24.281595 23.902077,24.093004 
	C24.602589,24.082827 24.772474,24.142920 24.983353,24.452152 
	C25.608271,25.191223 26.192196,25.681152 26.890995,26.351597 
	C27.005867,26.532114 27.205484,26.910637 27.160295,26.941963 
	C26.963970,27.176285 26.842928,27.396170 26.548525,27.699074 
	C26.345070,27.765209 25.941910,27.910364 25.581398,27.941895 
	C24.498007,28.003773 23.775131,28.034124 22.800791,27.969669 
	C22.381493,27.812176 22.213657,27.749489 22.045822,27.686800 
z"/>
<path fill="#AE867D" opacity="1.000000" stroke="none" 
	d="
M24.942358,24.203011 
	C24.772474,24.142920 24.602589,24.082827 24.181911,23.922199 
	C23.992794,23.048649 24.054464,22.275635 24.176903,21.116674 
	C24.559357,20.650480 24.881042,20.570232 25.383453,21.034569 
	C25.587559,22.026087 25.610941,22.473024 25.524118,23.019512 
	C25.322113,23.299229 25.221281,23.474190 25.079575,23.786861 
	C25.047728,23.929779 24.942358,24.203011 24.942358,24.203011 
z"/>
<path fill="#633A40" opacity="1.000000" stroke="none" 
	d="
M20.865368,23.871883 
	C20.903988,23.967115 20.645481,23.798456 20.575174,23.802162 
	C20.504868,23.805868 20.826750,23.776651 20.865368,23.871883 
z"/>
<path fill="#F1BA8E" opacity="1.000000" stroke="none" 
	d="
M27.313400,32.536133 
	C26.205257,32.447163 25.434448,32.386204 24.467606,31.996517 
	C24.339573,31.499720 24.407570,31.331652 24.737885,31.229668 
	C25.354357,31.246304 25.708513,31.196856 26.378426,31.048191 
	C27.438932,29.957493 28.183685,28.966015 29.161655,27.925777 
	C29.394869,27.877018 29.819168,27.660141 29.819168,27.660141 
	C30.058071,27.680510 30.296974,27.700880 30.830593,28.141285 
	C31.131975,28.790796 31.138643,29.020277 31.145313,29.249758 
	C30.544935,30.158533 29.944559,31.067308 29.173244,32.258099 
	C28.551781,32.548122 28.101255,32.556133 27.313400,32.536133 
z"/>
<path fill="#D5967E" opacity="1.000000" stroke="none" 
	d="
M31.414188,29.087667 
	C31.138643,29.020277 31.131975,28.790796 31.181585,28.219742 
	C31.407955,27.879807 31.578045,27.881447 32.002403,27.846416 
	C32.065468,28.181688 31.874264,28.553633 31.414188,29.087667 
z"/>
<path fill="#2E0900" opacity="1.000000" stroke="none" 
	d="
M34.494003,16.712456 
	C34.494003,16.712456 34.425510,16.307709 34.541161,16.138357 
	C35.181725,15.978378 35.706635,15.987750 36.625072,15.999071 
	C37.075977,16.767048 37.133354,17.533073 37.134567,18.683201 
	C36.773766,19.177927 36.569569,19.386766 36.333961,19.876532 
	C36.009247,20.043327 35.816383,20.027412 35.307213,20.049967 
	C34.990910,20.088438 34.882832,20.057411 34.986900,19.630608 
	C34.891979,18.373356 34.692993,17.542906 34.494003,16.712456 
z"/>
<path fill="#FFD9BC" opacity="1.000000" stroke="none" 
	d="
M25.634323,22.919960 
	C25.610941,22.473024 25.587559,22.026087 25.528465,21.245327 
	C25.600821,20.066017 25.708889,19.220533 26.195915,17.981956 
	C26.989225,17.760307 27.403576,17.931749 27.842999,18.496574 
	C29.507490,21.990135 31.256506,19.651110 33.253727,18.996750 
	C33.720814,18.966982 33.905827,18.933254 34.189964,19.115387 
	C34.413155,19.633682 34.611073,19.875736 34.882832,20.057411 
	C34.882832,20.057411 34.990910,20.088438 35.017147,20.038895 
	C34.928513,21.103495 34.813641,22.217636 34.648994,23.750973 
	C34.599224,24.170166 34.209053,24.206758 34.050186,24.323332 
	C32.612335,24.790239 31.333347,25.140574 29.347893,26.070065 
	C28.162777,26.736359 27.684130,26.823498 27.205484,26.910637 
	C27.205484,26.910637 27.005867,26.532114 27.176987,26.268257 
	C27.569242,25.324673 27.790379,24.644945 27.795509,23.708340 
	C26.931110,23.274296 26.282717,23.097128 25.634323,22.919960 
z"/>
<path fill="#95553F" opacity="1.000000" stroke="none" 
	d="
M27.160295,26.941963 
	C27.684130,26.823498 28.162777,26.736359 29.326099,26.396919 
	C29.956903,26.480427 29.903027,26.816231 29.834160,27.406090 
	C29.819168,27.660141 29.394869,27.877018 28.796017,27.894320 
	C27.715437,27.818727 27.233707,27.725834 26.751980,27.632940 
	C26.842928,27.396170 26.963970,27.176285 27.160295,26.941963 
z"/>
<path fill="#753121" opacity="1.000000" stroke="none" 
	d="
M27.817928,18.103191 
	C27.403576,17.931749 26.989225,17.760307 26.237938,17.556412 
	C25.901003,17.523960 25.935505,17.553919 26.323200,17.431381 
	C26.879177,16.594521 27.047457,15.880200 27.215736,15.165879 
	C27.907957,15.113611 28.600178,15.061343 29.643257,14.986685 
	C30.501760,15.214752 31.009407,15.465208 31.871952,16.082712 
	C32.426685,16.726225 32.691223,16.909103 33.020462,16.998394 
	C33.131844,17.140757 33.243225,17.283117 33.214485,17.644733 
	C33.074368,17.863987 32.679340,17.880110 32.277866,17.902176 
	C30.523571,17.983892 29.170750,18.043543 27.817928,18.103191 
z"/>
<path fill="#EED3B3" opacity="1.000000" stroke="none" 
	d="
M32.668938,11.225301 
	C32.192764,12.066907 31.428600,12.996275 30.325291,13.943573 
	C30.784410,13.078691 31.582678,12.195876 32.668938,11.225301 
z"/>
<path fill="#D5967E" opacity="1.000000" stroke="none" 
	d="
M26.756754,15.251340 
	C27.047457,15.880200 26.879177,16.594521 26.342251,17.421425 
	C25.827755,17.156992 25.681904,16.779978 25.513058,16.104126 
	C25.759298,15.649128 26.028536,15.492964 26.756754,15.251340 
z"/>
<path fill="#7B3E34" opacity="1.000000" stroke="none" 
	d="
M33.061714,16.726257 
	C32.691223,16.909103 32.426685,16.726225 32.112843,16.232790 
	C32.164772,15.982843 32.330711,15.949868 32.750259,15.914759 
	C33.036896,16.093121 33.069931,16.273621 33.061714,16.726257 
z"/>
<path fill="#8D6749" opacity="1.000000" stroke="none" 
	d="
M34.986900,19.630608 
	C34.611073,19.875736 34.413155,19.633682 34.123123,18.781311 
	C33.818024,18.051527 33.678886,17.871679 33.539749,17.691832 
	C33.637943,17.379297 33.808243,17.112831 34.272324,16.802444 
	C34.692993,17.542906 34.891979,18.373356 34.986900,19.630608 
z"/>
<path fill="#CC9172" opacity="1.000000" stroke="none" 
	d="
M33.495453,17.750938 
	C33.678886,17.871679 33.818024,18.051527 34.024002,18.565449 
	C33.905827,18.933254 33.720814,18.966982 33.185623,18.717239 
	C32.783417,18.249218 32.731380,18.064663 32.679340,17.880110 
	C32.679340,17.880110 33.074368,17.863987 33.266781,17.910774 
	C33.459194,17.957561 33.451153,17.810047 33.495453,17.750938 
z"/>
<path fill="#945447" opacity="1.000000" stroke="none" 
	d="
M26.062672,31.147408 
	C25.708513,31.196856 25.354357,31.246304 24.331860,31.166306 
	C23.393612,31.001104 23.123705,30.965349 22.853800,30.929592 
	C22.853800,30.929592 22.751066,30.721386 22.855356,30.215157 
	C22.990515,29.160778 23.021385,28.612627 23.052254,28.064476 
	C23.775131,28.034124 24.498007,28.003773 25.593376,28.346695 
	C25.998135,29.529114 26.030403,30.338261 26.062672,31.147408 
z"/>
<path fill="#835A60" opacity="1.000000" stroke="none" 
	d="
M22.800791,27.969669 
	C23.021385,28.612627 22.990515,29.160778 22.926783,30.123646 
	C22.724348,30.487600 22.554775,30.436834 22.148045,30.266144 
	C21.936214,29.601353 21.961540,29.056486 22.016344,28.099209 
	C22.213657,27.749489 22.381493,27.812176 22.800791,27.969669 
z"/>
<path fill="#835A60" opacity="1.000000" stroke="none" 
	d="
M22.858946,31.284317 
	C23.123705,30.965349 23.393612,31.001104 24.069546,31.100224 
	C24.407570,31.331652 24.339573,31.499720 24.097971,31.877548 
	C23.767237,32.162201 23.610107,32.237091 23.192240,32.328667 
	C22.909031,32.109924 22.886562,31.874483 22.858946,31.284317 
z"/>
<path fill="#86483F" opacity="1.000000" stroke="none" 
	d="
M28.011517,23.965221 
	C27.790379,24.644945 27.569242,25.324673 27.062113,26.087742 
	C26.192196,25.681152 25.608271,25.191223 24.983353,24.452152 
	C24.942358,24.203011 25.047728,23.929779 25.430462,23.900063 
	C26.545969,23.901970 27.278742,23.933596 28.011517,23.965221 
z"/>
<path fill="#B1694A" opacity="1.000000" stroke="none" 
	d="
M26.378424,31.048191 
	C26.030403,30.338261 25.998135,29.529114 25.953888,28.315166 
	C25.941910,27.910364 26.345070,27.765209 26.548525,27.699074 
	C27.233707,27.725834 27.715437,27.818727 28.562801,27.943077 
	C28.183685,28.966015 27.438932,29.957493 26.378424,31.048191 
z"/>
<path fill="#FDC2AC" opacity="1.000000" stroke="none" 
	d="
M27.795509,23.708342 
	C27.278742,23.933596 26.545969,23.901970 25.462307,23.757145 
	C25.221281,23.474190 25.322113,23.299229 25.524118,23.019512 
	C26.282717,23.097128 26.931110,23.274296 27.795509,23.708342 
z"/>
<path fill="#7B3E34" opacity="1.000000" stroke="none" 
	d="
M32.277866,17.902176 
	C32.731380,18.064663 32.783417,18.249218 32.903553,18.713280 
	C31.256506,19.651110 29.507490,21.990135 27.842999,18.496574 
	C29.170750,18.043543 30.523571,17.983892 32.277866,17.902176 
z"/>
</svg>