<svg xmlns="http://www.w3.org/2000/svg" width="127" height="186" viewBox="0 0 127 186" version="1.1"><path d="M 32.402 31.590 C 15.406 48.964, 1.385 63.483, 1.245 63.854 C 1.105 64.226, 5.160 68.682, 10.257 73.758 L 19.523 82.986 61.007 41.493 L 102.491 0 82.898 0 L 63.305 0 32.402 31.590 M 46.633 75.867 L 29.787 92.734 30.829 94.617 C 31.402 95.653, 39.003 103.598, 47.719 112.272 L 63.568 128.045 82.741 127.772 L 101.914 127.500 87.707 112.986 C 79.893 105.004, 72.395 97.226, 71.044 95.703 L 68.589 92.933 85.533 75.967 L 102.478 59 82.978 59 L 63.478 59 46.633 75.867 M 0 168.500 L 0 185 2 185 L 4 185 4 178 L 4 171 11 171 L 18 171 18 169 L 18 167 11 167 L 4 167 4 161 L 4 155 11.500 155 L 19 155 19 153.500 L 19 152 9.500 152 L 0 152 0 168.500 M 23 168.500 L 23 185 25 185 L 27 185 27 168.500 L 27 152 25 152 L 23 152 23 168.500 M 60 158 L 60 161 58 161 C 56.667 161, 56 161.667, 56 163 C 56 164.333, 56.667 165, 58 165 L 60 165 60 173.500 L 60 182 62.061 184.061 C 64.508 186.508, 69.320 186.360, 69.801 183.822 C 70.027 182.628, 69.309 182.051, 67.309 181.822 L 64.500 181.500 64.210 173.250 L 63.919 165 67.033 165 L 70.147 165 69.815 163.250 C 69.615 162.195, 68.395 161.374, 66.741 161.184 L 64 160.867 64 157.934 L 64 155 62 155 L 60 155 60 158 M 76 157.883 C 76 159.926, 75.417 160.919, 74 161.290 C 72.900 161.577, 72 162.530, 72 163.406 C 72 164.333, 72.837 165, 74 165 L 76 165 76 173.045 L 76 181.091 78.455 183.545 C 81.527 186.618, 86 186.887, 86 184 C 86 182.557, 85.333 182, 83.607 182 C 80.559 182, 80 180.438, 80 171.918 L 80 165 83 165 L 86 165 86 163 L 86 161 83 161 L 80 161 80 158 L 80 155 78 155 L 76 155 76 157.883 M 32.015 170.177 C 32.032 181.369, 33.160 184.154, 38.182 185.404 L 41.814 186.307 45.407 184.187 L 49 182.067 49 183.534 C 49 184.340, 49.675 185, 50.500 185 L 52 185 52 172.927 L 52 160.853 50.250 161.188 L 48.500 161.522 48.206 169.981 C 47.996 176.033, 47.454 178.946, 46.301 180.220 C 44.417 182.301, 38.741 182.598, 37.164 180.698 C 36.570 179.982, 35.952 175.374, 35.792 170.459 L 35.500 161.523 33.750 161.188 L 32 160.853 32.015 170.177 M 93.217 162.561 C 85.757 167.786, 86.634 180.700, 94.709 184.532 C 99.285 186.704, 104.564 185.893, 107.946 182.500 L 110.500 179.938 109.015 179.015 C 107.979 178.371, 106.902 178.682, 105.451 180.046 C 102.310 182.997, 96.664 182.659, 94.073 179.365 C 92.933 177.916, 92 176.116, 92 175.365 L 92 174 101.500 174 L 111 174 111 172.468 C 111 169.610, 108.222 164.269, 105.883 162.631 C 102.931 160.563, 96.123 160.525, 93.217 162.561 M 113.667 161.667 C 113.300 162.033, 113 167.433, 113 173.667 L 113 185 115 185 L 117 185 117 177.934 C 117 168.250, 118.798 165.046, 124.250 165.015 C 126.328 165.004, 127 164.511, 127 163 C 127 160.496, 122.529 160.241, 119.223 162.557 L 117 164.113 117 162.557 C 117 160.989, 114.904 160.429, 113.667 161.667 M 94.455 166.455 C 90.620 170.289, 91.331 171, 99 171 L 106 171 106 169.057 C 106 166.691, 102.398 164, 99.232 164 C 97.954 164, 95.805 165.105, 94.455 166.455" stroke="none" fill="#4ca9d7" fill-rule="evenodd"/><path d="M 0 76 L 0 152 9.500 152 L 19 152 19 153.500 L 19 155 11.500 155 L 4 155 4 161 L 4 167 11 167 L 18 167 18 169 L 18 171 11 171 L 4 171 4 177.930 L 4 184.861 1.750 185.294 C 0.512 185.533, 8.275 185.760, 19 185.800 C 31.633 185.848, 37.702 185.553, 36.235 184.963 C 32.996 183.662, 32 180.112, 32 169.862 L 32 160.853 33.750 161.188 L 35.500 161.523 35.792 170.459 C 35.952 175.374, 36.570 179.982, 37.164 180.698 C 38.741 182.598, 44.417 182.301, 46.301 180.220 C 47.454 178.946, 47.996 176.033, 48.206 169.981 L 48.500 161.522 50.250 161.188 L 52 160.853 52 172.927 L 52 185 50.573 185 C 49.789 185, 49.001 184.395, 48.823 183.657 L 48.500 182.313 45.500 184.151 L 42.500 185.989 53.250 185.995 L 64 186 62 184 L 60 182 60 173.500 L 60 165 58 165 C 56.667 165, 56 164.333, 56 163 C 56 161.667, 56.667 161, 58 161 L 60 161 60 158 L 60 155 62 155 L 64 155 64 157.934 L 64 160.867 66.741 161.184 C 68.395 161.374, 69.615 162.195, 69.815 163.250 L 70.147 165 67.033 165 L 63.919 165 64.210 173.250 L 64.500 181.500 67.347 181.826 L 70.194 182.152 69.690 184.076 L 69.187 186 75.048 186 L 80.909 186 78.455 183.545 L 76 181.091 76 173.045 L 76 165 74 165 C 71.378 165, 71.378 161.976, 74 161.290 C 75.417 160.919, 76 159.926, 76 157.883 L 76 155 78 155 L 80 155 80 158 L 80 161 83 161 L 86 161 86 163 L 86 165 83 165 L 80 165 80 171.918 C 80 180.438, 80.559 182, 83.607 182 C 85.333 182, 86 182.557, 86 184 L 86 186 91.750 185.977 L 97.500 185.954 94.321 184.387 C 86.618 180.588, 85.963 167.641, 93.217 162.561 C 96.123 160.525, 102.931 160.563, 105.883 162.631 C 108.222 164.269, 111 169.610, 111 172.468 L 111 174 101.500 174 L 92 174 92 175.365 C 92 176.116, 92.933 177.916, 94.073 179.365 C 96.664 182.659, 102.310 182.997, 105.451 180.046 C 106.866 178.717, 107.993 178.378, 108.976 178.985 L 110.420 179.878 108.460 182.057 C 107.382 183.255, 105.600 184.604, 104.500 185.055 C 103.293 185.549, 107.290 185.898, 114.583 185.937 C 121.229 185.971, 126.854 185.814, 127.083 185.588 C 127.313 185.361, 127.358 180.636, 127.184 175.088 L 126.867 165 124.184 165.015 C 118.803 165.046, 117 168.289, 117 177.934 L 117 185 114.968 185 L 112.937 185 113.218 173.262 L 113.500 161.524 115.250 161.189 C 116.338 160.980, 117 161.470, 117 162.483 L 117 164.113 119.223 162.557 C 120.445 161.701, 122.629 161, 124.076 161 L 126.707 161 127.353 153.349 C 127.709 149.141, 128 112.916, 128 72.849 L 128 0 115.254 0 L 102.509 0 60.992 41.508 L 19.476 83.015 10.005 73.505 L 0.534 63.995 13.517 50.834 C 20.658 43.596, 30.100 33.977, 34.500 29.459 C 38.900 24.941, 47.217 16.464, 52.982 10.622 L 63.464 0 31.732 0 L 0 0 0 76 M 0.475 76.500 C 0.475 118.300, 0.599 135.254, 0.750 114.176 C 0.901 93.098, 0.900 58.898, 0.750 38.176 C 0.599 17.454, 0.475 34.700, 0.475 76.500 M 46.633 75.867 L 29.787 92.734 30.829 94.617 C 31.402 95.653, 39.003 103.598, 47.719 112.272 L 63.568 128.045 82.741 127.772 L 101.914 127.500 87.707 112.986 C 79.893 105.004, 72.395 97.226, 71.044 95.703 L 68.589 92.933 85.533 75.967 L 102.478 59 82.978 59 L 63.478 59 46.633 75.867 M 23 168.500 L 23 185 25 185 L 27 185 27 168.500 L 27 152 25 152 L 23 152 23 168.500 M 94.455 166.455 C 90.620 170.289, 91.331 171, 99 171 L 106 171 106 169.057 C 106 166.691, 102.398 164, 99.232 164 C 97.954 164, 95.805 165.105, 94.455 166.455" stroke="none" fill="#f8f9f9" fill-rule="evenodd"/></svg>