<svg xmlns="http://www.w3.org/2000/svg" width="186" height="186" viewBox="0 0 186 186" version="1.1"><path d="M 86.450 3.351 C 80.388 6.102, 77.610 11.004, 76.764 20.447 L 76.500 23.394 58.550 33.769 L 40.601 44.144 36.914 42.072 C 32.221 39.434, 24.704 39.338, 20.009 41.855 C 16.002 44.004, 11.989 50.813, 12.022 55.407 C 12.061 60.952, 15.402 66.565, 20.408 69.499 L 25 72.190 25 93 L 25 113.810 20.596 116.391 C 14.958 119.695, 11.501 126.246, 12.291 132.130 C 12.971 137.199, 16.594 142.558, 20.651 144.495 C 25.184 146.660, 32.509 146.404, 36.914 143.928 L 40.601 141.856 58.550 152.236 L 76.500 162.615 77.128 168.406 C 78.198 178.267, 83.700 183.500, 93 183.500 C 102.572 183.500, 108.401 177.790, 108.643 168.177 L 108.786 162.500 127.068 151.899 L 145.349 141.297 148.814 143.649 C 152.926 146.439, 160.469 146.825, 165.349 144.495 C 169.406 142.558, 173.029 137.199, 173.709 132.130 C 174.499 126.246, 171.042 119.695, 165.404 116.391 L 161 113.810 161 93 L 161 72.190 165.592 69.499 C 170.598 66.565, 173.939 60.952, 173.978 55.407 C 174.011 50.813, 169.998 44.004, 165.991 41.855 C 161.296 39.338, 153.779 39.434, 149.086 42.072 L 145.399 44.144 127.450 33.764 L 109.500 23.385 108.872 17.594 C 107.885 8.498, 102.633 2.993, 94.324 2.344 C 91.543 2.127, 88.209 2.553, 86.450 3.351 M 62 40.441 L 44.500 50.719 43.993 56.295 C 43.404 62.779, 41.001 66.593, 35.672 69.500 L 32.005 71.500 32.003 93.250 C 32.001 105.213, 32.189 115, 32.421 115 C 32.652 115, 37.556 106.787, 43.318 96.750 C 53.435 79.126, 60.683 66.590, 75.116 41.750 C 78.871 35.287, 81.394 30.037, 80.722 30.082 C 80.050 30.127, 71.625 34.788, 62 40.441 M 110.884 41.750 C 125.317 66.590, 132.565 79.126, 142.682 96.750 C 148.444 106.788, 153.348 115, 153.579 115 C 153.811 115, 153.999 105.213, 153.997 93.250 L 153.995 71.500 150.328 69.500 C 144.997 66.591, 142.596 62.780, 142.007 56.288 L 141.500 50.704 123.613 40.352 C 113.775 34.658, 105.350 30, 104.891 30 C 104.432 30, 107.129 35.287, 110.884 41.750 M 64.006 75.989 L 39.761 118.073 42.129 122.537 L 44.497 127 93 127 L 141.503 127 143.871 122.536 L 146.239 118.073 122.181 76.286 L 98.123 34.500 93.188 34.202 L 88.252 33.904 64.006 75.989 M 44.039 134.750 C 44.060 135.162, 50.248 138.980, 57.789 143.234 C 65.330 147.488, 73.607 152.201, 76.181 153.707 L 80.862 156.446 84.817 154.223 C 90.083 151.263, 96.150 151.318, 101.412 154.373 L 105.500 156.746 123.750 146.177 C 133.787 140.364, 142 135.246, 142 134.804 C 142 134.362, 119.950 134, 93 134 C 66.050 134, 44.018 134.338, 44.039 134.750" stroke="none" fill="#e432ab" fill-rule="evenodd"/><path d="M -0 93.005 L -0 186.010 93.250 185.755 L 186.500 185.500 186.755 92.750 L 187.010 0 93.505 0 L 0 0 -0 93.005 M 0.480 93.500 C 0.480 144.650, 0.601 165.428, 0.750 139.674 C 0.898 113.920, 0.898 72.070, 0.750 46.674 C 0.601 21.278, 0.480 42.350, 0.480 93.500 M 86.450 3.351 C 80.388 6.102, 77.610 11.004, 76.764 20.447 L 76.500 23.394 58.550 33.769 L 40.601 44.144 36.914 42.072 C 32.221 39.434, 24.704 39.338, 20.009 41.855 C 16.002 44.004, 11.989 50.813, 12.022 55.407 C 12.061 60.952, 15.402 66.565, 20.408 69.499 L 25 72.190 25 93 L 25 113.810 20.596 116.391 C 14.958 119.695, 11.501 126.246, 12.291 132.130 C 12.971 137.199, 16.594 142.558, 20.651 144.495 C 25.184 146.660, 32.509 146.404, 36.914 143.928 L 40.601 141.856 58.550 152.236 L 76.500 162.615 77.128 168.406 C 78.198 178.267, 83.700 183.500, 93 183.500 C 102.572 183.500, 108.401 177.790, 108.643 168.177 L 108.786 162.500 127.068 151.899 L 145.349 141.297 148.814 143.649 C 152.926 146.439, 160.469 146.825, 165.349 144.495 C 169.406 142.558, 173.029 137.199, 173.709 132.130 C 174.499 126.246, 171.042 119.695, 165.404 116.391 L 161 113.810 161 93 L 161 72.190 165.592 69.499 C 170.598 66.565, 173.939 60.952, 173.978 55.407 C 174.011 50.813, 169.998 44.004, 165.991 41.855 C 161.296 39.338, 153.779 39.434, 149.086 42.072 L 145.399 44.144 127.450 33.764 L 109.500 23.385 108.872 17.594 C 107.885 8.498, 102.633 2.993, 94.324 2.344 C 91.543 2.127, 88.209 2.553, 86.450 3.351 M 62 40.441 L 44.500 50.719 43.993 56.295 C 43.404 62.779, 41.001 66.593, 35.672 69.500 L 32.005 71.500 32.003 93.250 C 32.001 105.213, 32.189 115, 32.421 115 C 32.652 115, 37.556 106.787, 43.318 96.750 C 53.435 79.126, 60.683 66.590, 75.116 41.750 C 78.871 35.287, 81.394 30.037, 80.722 30.082 C 80.050 30.127, 71.625 34.788, 62 40.441 M 110.884 41.750 C 125.317 66.590, 132.565 79.126, 142.682 96.750 C 148.444 106.788, 153.348 115, 153.579 115 C 153.811 115, 153.999 105.213, 153.997 93.250 L 153.995 71.500 150.328 69.500 C 144.997 66.591, 142.596 62.780, 142.007 56.288 L 141.500 50.704 123.613 40.352 C 113.775 34.658, 105.350 30, 104.891 30 C 104.432 30, 107.129 35.287, 110.884 41.750 M 64.006 75.989 L 39.761 118.073 42.129 122.537 L 44.497 127 93 127 L 141.503 127 143.871 122.536 L 146.239 118.073 122.181 76.286 L 98.123 34.500 93.188 34.202 L 88.252 33.904 64.006 75.989 M 44.039 134.750 C 44.060 135.162, 50.248 138.980, 57.789 143.234 C 65.330 147.488, 73.607 152.201, 76.181 153.707 L 80.862 156.446 84.817 154.223 C 90.083 151.263, 96.150 151.318, 101.412 154.373 L 105.500 156.746 123.750 146.177 C 133.787 140.364, 142 135.246, 142 134.804 C 142 134.362, 119.950 134, 93 134 C 66.050 134, 44.018 134.338, 44.039 134.750" stroke="none" fill="#fbfbfb" fill-rule="evenodd"/></svg>